<svg xmlns="http://www.w3.org/2000/svg" viewBox="0 0 150 117.74"><g id="Layer_2" data-name="Layer 2"><g id="Layer_1-2" data-name="Layer 1"><path d="M149.61,16.76a20.73,20.73,0,0,0-4.29-9.1A17.52,17.52,0,0,0,143.9,6.1,20.73,20.73,0,0,0,129.19,0H20.81A20.76,20.76,0,0,0,6.1,6.1,17.52,17.52,0,0,0,4.68,7.66a20.48,20.48,0,0,0-4.27,9.1,20.16,20.16,0,0,0-.41,4V96.93a20.88,20.88,0,0,0,6.1,14.71c.46.46.93.89,1.43,1.32a20.8,20.8,0,0,0,13.28,4.78H129.19a20.65,20.65,0,0,0,13.28-4.8c.5-.41,1-.84,1.43-1.3a20.93,20.93,0,0,0,4.4-6.45h0a20.71,20.71,0,0,0,1.7-8.25V20.81A20.91,20.91,0,0,0,149.61,16.76Zm-136-3.13a10,10,0,0,1,7.18-3H129.19a10,10,0,0,1,7.18,3,11.45,11.45,0,0,1,.92,1.06L80.48,64.2a8.35,8.35,0,0,1-11,0L12.74,14.67A7.21,7.21,0,0,1,13.63,13.63Zm-3,83.3V25.69L51.76,61.55,10.67,97.38A2.17,2.17,0,0,1,10.64,96.93Zm118.55,10.16H20.81a10,10,0,0,1-5-1.33L59.13,68l4,3.52a18,18,0,0,0,23.67,0l4-3.52,43.34,37.78A10.05,10.05,0,0,1,129.19,107.09Zm10.17-10.16a3.24,3.24,0,0,1,0,.45L98.25,61.57,139.36,25.7Z"/></g></g></svg>