<svg xmlns="http://www.w3.org/2000/svg" viewBox="0 0 150 150.01"><g id="Layer_2" data-name="Layer 2"><g id="Layer_1-2" data-name="Layer 1"><path d="M105.31,0H44.69A44.73,44.73,0,0,0,0,44.69v60.62A44.73,44.73,0,0,0,44.69,150h60.62A44.73,44.73,0,0,0,150,105.31V44.69A44.7,44.7,0,0,0,105.31,0Zm29.61,105.31a29.63,29.63,0,0,1-29.61,29.61H44.69a29.6,29.6,0,0,1-29.6-29.6h0V44.69a29.59,29.59,0,0,1,29.58-29.6h60.64a29.6,29.6,0,0,1,29.6,29.6Z"/><path d="M75,36.22A38.79,38.79,0,1,0,113.79,75,38.82,38.82,0,0,0,75,36.22ZM75,98.7A23.7,23.7,0,1,1,98.69,75,23.69,23.69,0,0,1,75,98.7Zm38.87-71.49a9.3,9.3,0,1,1-9.3,9.3C104.57,31.39,108.05,27.21,113.87,27.21Z"/></g></g></svg>