<svg xmlns="http://www.w3.org/2000/svg" viewBox="0 0 281.78 162.61"><defs><style>.cls-1{fill:#cb2221;}</style></defs><g id="Layer_2" data-name="Layer 2"><g id="Layer_1-2" data-name="Layer 1"><path class="cls-1" d="M130.17,73.21c.37-1,1.8-1.15,2-2.33a2.08,2.08,0,0,1,1.72.92c3,5.14,5.63,10.33,5.22,16.65-.2,3.06-1.82,5.71-1.79,8.75l.06-.09a2.41,2.41,0,0,0-1.39,2l.09-.13c-.39.17-.71.37-.59.88a2.88,2.88,0,0,1-1.38,1.31l-.47.05.11-.07.08.12a1.4,1.4,0,0,0-1,.94l.05-.06a1.81,1.81,0,0,0-1.44.92l0,0c-1.73.44-3.45,1-5.2,1.32-5.79,1.15-11.64-.16-17.44.32-4.12.34-7.91-1-11.78-2.08l0,0a1.27,1.27,0,0,0-1-1l.08,0-.58-.46-.35-.36a1.36,1.36,0,0,0-1-1l0,0-.41-.33-.19.57,0-.05c-1.07,0-1.36.84-1.61,1.66l0-.1-.5.51,0-.06-.5.51.09-.08.08.1a1.28,1.28,0,0,0-1.06.91l.05,0c-3.1.92-6.31.63-9.47.81-1.1.06-2.31.39-2.3-2-1.23,2.27-2.84,2-4.4,2.06-2.13.09-3.75-1.43-5.75-1.66l.06-.13.12.06-1-.51-.36-.33-.47-.61,0,0-.5-.49,0,0-.54-.47a.78.78,0,0,0-.81.58,32.14,32.14,0,0,1-1.72,3.66c-2.84,4.81-2.6,4.34-6.87,3.21.09-1.3-1-1.13-1.71-1.27A59.64,59.64,0,0,1,45.49,104a3.85,3.85,0,0,0-3.47.23l-5.92-1.43C34,101,31,100.69,29.43,102.12c-1.21.89-1.39,2.23-1.59,3.57-1.38.49-.59,1.56-.53,2.34.36,4.65,2.35,9,3,13.54v-.09c-.17.16-.33.33-.5.5l.05,0-.5.5.05-.05-.5.5.05,0c-.17.17-.34.33-.5.5l0,0-.49.5,0,0-.5.49.05,0-.5.49,0-.05c-.15.2-.3.39-.46.58l-1.26,1.26c-1.2.32-2.26.77-2.31,2.26-.08.12-.14.28-.26.35-.72.46-1.27,1.64-2.12,1.33s-.9-1.53-1-2.47a2.66,2.66,0,0,0,.15-2.58,15.47,15.47,0,0,1-.85-5.29c.2-8.53-1.94-17.22,1.7-25.51a.87.87,0,0,0,0-.23l-.05.08A1.72,1.72,0,0,0,21.67,93l0,.08a3.2,3.2,0,0,0,1.84-2.32v.08l.49-.51,0,0c.17-.17.33-.34.5-.5H24.3a5.37,5.37,0,0,0,2.78-2.77l0,0c3.3-.57,4.76-2.68,5.24-5.86a12.21,12.21,0,0,1,1.51-3.45,7.21,7.21,0,0,0,1-3.38l.06.14c0-.17,0-.33,0-.49.86-2.36,3.28-3.41,4.56-5.41a1.35,1.35,0,0,0,1.25-1l0,0a2.09,2.09,0,0,0,1.85-1l-.05.1.53-.48-.06,0a15,15,0,0,0,3.93-.74c3.91-.9,7.85-1.12,11.51.89A16.74,16.74,0,0,0,62,68.16l-.08,0,1,.54-.08,0,.49.49V69a1.59,1.59,0,0,0,1.41,1.42h-.1c.17.17.33.34.5.5v-.08a3.1,3.1,0,0,0,.2,1.08,30.28,30.28,0,0,1,4.17,11.63A2.56,2.56,0,0,0,71,85.37l0-.06a1.42,1.42,0,0,0,1,1.41l-.08,0,.5.49,0-.08a1.8,1.8,0,0,0,.06.22c.7,1.92,3.06,1.33,4,2.46,1.22,1.48,1.89,2.32,3.18.25.11-.17.71,0,1.08,0,1.13,0,2.26,0,3.38,0,2.53.22,3.74-.83,4.71-3.31,2.56-6.53,1-6,7.59-5.78.37,0,.75,0,1.12-.06,1.65-.07,2.2.8,1.79,2.27-.33,1.23-.83,2.41-1.24,3.62-.73,2.09-.15,2.84,2,3.13,6.85.93,13.73.47,20.6.76,2.62.11,5.25.06,7.87.22a1.69,1.69,0,0,0,2-1.55l-.07.11c.91-1,1-1.82-.59-2.15H130c-.08-2-.57-3.81-2.69-4.64l0,.08c0-.28-.12-.5-.46-.49l-.8-1-.07-.46v.08l-.49-.51v.11l-.74-1.62.16,0,0,.16,1-1-.06.08.53-.52-.09.05a3.9,3.9,0,0,0,1.88-1.86l-.07.07a1.8,1.8,0,0,0,1-1.39v.09c.16-.17.32-.34.49-.5l-.05,0,.5-.5,0,.07C130.07,73.51,130.12,73.36,130.17,73.21ZM56.42,82.67l.06.07-1-.5.06.08c-2.11-2.87-8-3.38-10.8-.95l0-.05-1,.48h.1l-1,.51.19-.09.09.19a.33.33,0,0,0-.27.28l-.88.94c-.34,0-.41.23-.45.49l0-.08c-1.74.84-1.86,2.49-1.78,4s1.71,1.39,2.77,1.77c5.24,1.88,10.78,2.51,16.14,3.9a4.09,4.09,0,0,0,3.07-.18l.56-.55a6.63,6.63,0,0,0-2.81-6.69l-2.68-3Z"/><path class="cls-1" d="M241.54,46.51l8.85-5,1.1-.45h-.11a2.85,2.85,0,0,0,2.35-1.36l-.06.07,1-.48h-.12l1-.46-.13,0a5.56,5.56,0,0,0,4.18-2.28l-.07.07,1-.47-.1,0,1-.47-.12,0c2.15-.09,3.62-1.69,5.48-2.43,1-.41,1.8-.66,1.56,1-.71,4.73-.92,9.52-2,14.21l0,0-1,.49h.11c-1.34.12-2.68.26-3.24,1.8l0,0a2,2,0,0,0-1.86,1l.07-.07-1,.47h.09a2,2,0,0,0-1.88,1l.08-.1-1,.47H257l-1,.46.13,0a21.29,21.29,0,0,0-8.69,4.57l.08-.09-1,.47h.11a7.7,7.7,0,0,0-3.83,1.46c-.71.4-1.22.93-.28,1.66l-.07-.05,1,.45h-.12a3.1,3.1,0,0,0,2.34.91h-.1l1,.46-.08-.1a1.92,1.92,0,0,0,1.88,1h-.1l1,.45-.08-.07a2.11,2.11,0,0,0,1.35,1c2,1,4.3,1.42,5.92,3.14,0,.35.23.42.51.44h-.1a2.4,2.4,0,0,0,1.88,1.37h-.08l.5.49,0-.06,1,.93,0-.07a3,3,0,0,0,1.42,1.41l-.06-.07a3.71,3.71,0,0,0,1.89,1.87l0-.14.14,0a1.2,1.2,0,0,0,1.21,1.55l-.06,0a5.11,5.11,0,0,0,2.34,3.69l-.06-.09a1.82,1.82,0,0,0,1,1.9l-.07-.1a7.5,7.5,0,0,0,.11,3.13c1.67,4.16.77,8.18-.37,12.28-.68,2.47-2.73,3.9-3.83,6l.06-.06a33.51,33.51,0,0,1-10.64,1.33c-6.54-.12-13.07,0-19.6,0-1,0-2.16-.2-2.81,1l.11-.06a61.46,61.46,0,0,0-4.11,11.39l0-.11c-.16.33-.32.66-.47,1l.06-.08a1.87,1.87,0,0,0-.95,1.45v-.1l-.41.63c-1.42,1-1.51,3.13-3.23,3.91-.53-.12-.72.21-.86.62l-.09-.09.1-.09-.52.49.15,0a1.36,1.36,0,0,0-1.47,1.34l0,0a4.75,4.75,0,0,0-2.41,1c-2.22,1.27-4.4,2.87-7.21,1.69l.07,0a2.48,2.48,0,0,0-2.33-1.38l.07,0c-1.65-1.76-3.44-3.3-6-3.66l.09,0c-.29-.34-.5-.81-.86-1-2-1.17-1.14-1.53.39-2.24s3.4-1.25,4.52-2.79l-.07.09,1-.47-.11,0c.81,0,1.54-.09,1.86-1l-.06,0a4.63,4.63,0,0,0,4.13-2.29l-.06.07c1-.15,1.91-.35,2.32-1.43l-.07.06a1.34,1.34,0,0,0,1.42-.93l0,0a1.67,1.67,0,0,0,1.35-.49c2.3-2.44,5.88-3.32,7.71-6.35-.63-.86-1.56-.74-2.45-.75-4-.06-8,.19-12-.46h.08l-1-.47,0,0a16.56,16.56,0,0,0-3.63-4.11l0,0c0-3.74-.64-7.4-.46-11.24a52.46,52.46,0,0,1,2.71-15.72l1.92-2A12.83,12.83,0,0,1,219.5,69v-.22h.23c0,1.35,1,1.51,2,1.64h-.08l1,.46-.07,0,.5.5-.05-.05.5.5v-.09c.19,1.1.48,2.13,1.84,2.31l-.05,0,.48,1v-.13a1.81,1.81,0,0,0,.95,1.48l-.05-.1a2.11,2.11,0,0,0,.94,1.9l0-.11A3.06,3.06,0,0,0,229,80.87l-.05-.08c.62,3,1.06,6.12,3.06,8.66l.52,0a6.36,6.36,0,0,0,1.5.38c6.66,0,13.31,0,20-.07,1,0,2.15.15,2.88-.86-1.56-3.12-4.31-5.14-6.8-7.41a1.46,1.46,0,0,0-1.39-1.09l.06.07a1.31,1.31,0,0,0-1.41-1l.08,0a2.3,2.3,0,0,0-2.34-1.37l.1,0-1-.46.08.07a3.14,3.14,0,0,0-1.83-1.58c-4-1.62-7.9-3.32-12.13-4.06A2.4,2.4,0,0,1,228,69.44c0-2.16.52-4.31.18-6.48s.3-4.33.44-6.5a4.14,4.14,0,0,1,2.27-3.4,13.6,13.6,0,0,0,3.91-3l-.06.08,1-.49-.12,0a2.31,2.31,0,0,0,2.36-1.37l-.06.06,1-.47-.1,0,1-.48-.12,0A1.93,1.93,0,0,0,241.54,46.51ZM208.67,88.43a3.78,3.78,0,0,0,2.91,2.44,36.59,36.59,0,0,0,9.92,1.26c.88,0,1.82.11,2.4-.81a16.84,16.84,0,0,0-5.42-8.16c.28-.51.08-.81-.4-1.06-3.44-1.8-7.32.32-9.08,2.92-.68,1-1.26,2.26-.29,3.52Z"/><path class="cls-1" d="M6.36,6.37l-.12.07-.13,0c-.78.88-.66,2-.67,3,0,11.49-.1,23,0,34.45,0,3-.28,6-.16,9,.25,6.26.07,12.54.07,18.81a8.22,8.22,0,0,1-.74-1.89c-.21-.72-.41-1.45-.65-2.16a5.8,5.8,0,0,0-2-2.31c-.44-.39,0,1.23-1,1C.32,65.65.53,64.79.53,64c0-20.07,0-40.15,0-60.22C.48,1.56,1.32,1,3.42.94c7.72,0,15.43.58,23.15.06a4.61,4.61,0,0,1,3.5,1.2c.77.65,2.24,1.58,2.77.6C34,.57,35.73,1.35,37.46,1.22,45.87.58,54.29,1,62.7.68,75.48.27,88.27.56,101.06.56H277.45c1.27,0,2.58-.18,3.68.71L281,1.19l.12-.08a18.7,18.7,0,0,0-.22,2.23c.1,8.4.24,16.8.35,25.2,0,3.3-.23,3.54-2.53,3.62-3,.11-2.39-2-2.4-3.73,0-6.32,0-12.64,0-19a5.51,5.51,0,0,0-.46-3.07,4.58,4.58,0,0,0-2.62-.5c-19.91-.13-39.82.26-59.74-.36-11.63-.36-23.29.24-34.93.28-56.15.19-112.3.09-168.45.1C8.86,5.92,7.55,5.71,6.36,6.37Z"/><path class="cls-1" d="M170.16,104.78a.78.78,0,0,0,0-.43c-.41-.81-1.13-.6-1.77-.49-5.48,1-10.94,1.2-16.37-.36l.08.08a3.69,3.69,0,0,0-2.39-2.35l.09-.09.08.09-.49-.51v.08a20.88,20.88,0,0,1-.26-13.89c.49-1.4,1.25-2.74,1.17-4.3l0,0c1.4-.26,1.41-1.28,1.31-2.37l0,.14c.16-.33.32-.65.49-1l0,.06c.7-.45,1.61-.76,1.27-1.91v.1c.39-.16.7-.38.59-.88a2.81,2.81,0,0,1,1.36-1.38c.83.22,1.15-.27,1.32-1l0,0a13.93,13.93,0,0,0,6.83-3.72l-.1.08c3.26-.19,6.14-1.85,9.34-2.36,2.51-.4,2.73-.17,3,2.4A111.64,111.64,0,0,1,175.6,90c-.49,6.67-.37,13.42-3,19.83a15.2,15.2,0,0,0-1.38,6.32l.06-.07c-.89.49-1.56,1.09-1,2.24a18.35,18.35,0,0,1-8.59,8.61,2.13,2.13,0,0,0-1.27,1l0-.12-1,.5.07,0c-2.17.79-4.34,1.16-6.51,0l.14,0-1-.49,0,0a2,2,0,0,0-1.9-1.35l.11.06a2.3,2.3,0,0,0-2-1.39l.07-.09.1.07-1-.48.09.07a7.15,7.15,0,0,0-2.78-2.57c-1.58-1.09-1.1-1.75.29-2.46,2-1,4.31-1.35,6.08-2.84l-.06,0c2.56-.65,5-1.47,6.85-3.58l0,0,1-.48h-.1a6.79,6.79,0,0,0,5-3.22l-.06.07a1.89,1.89,0,0,0,1.44-.92h-.09c1.13-.17,2.06-.59,2.32-1.85l-.05.06a1.84,1.84,0,0,0,1.43-1l-.05.09.51-.49h-.11c.47-.16.95-.29,1.4-.48.16-.07.42-.27.16-.46S170.37,104.75,170.16,104.78Zm-13.41-18.9-.88.47a1.55,1.55,0,0,0-1.39.91,1,1,0,0,0-.89.87c-1.53,1.2-.88,2.21.36,3a6.77,6.77,0,0,0,3.42,1,63.15,63.15,0,0,0,11-.78,1.36,1.36,0,0,0,1.14-.59c.66-1,.27-7.3-.54-8.15-.2-.21-.51-.49-.74-.46-3.36.45-6.87.45-9.65,2.87l-.95.4Z"/><path class="cls-1" d="M199.09,69.48l.49-.33c1.19.53.92,1.62.88,2.54-.3,7.79-.49,15.58-1,23.35-.42,6.51-1.16,13-3.61,19.15a8,8,0,0,0-.28,2l0-.11-.45,1,.09-.1c-.72.38-1.44.76-1.05,1.79a17,17,0,0,1-3.87,4.53l-.65.47h.11a1.64,1.64,0,0,0-1.43,1.44l-.39.36a2,2,0,0,0-1.43.92l0,0-.51.5.09,0a1.37,1.37,0,0,0-1.41.94l0,0-3.3,1,.1,0-.95-.47h0l-.48-.49,0,.09a1.91,1.91,0,0,0-1.46-.94l.1,0a1.92,1.92,0,0,0-1.44-1l0,.06c-.11-.49-.36-.75-.88-.56l-3.19-2.21c-.08-1.19-1-1.16-1.86-1.35h.1l-.5-.5v.15c0-.55,0-1.1,0-1.64l-.06.11,1-.48-.1,0,1-.47-.12,0a3,3,0,0,0,2.8-1.43l-.1.07a2,2,0,0,0,1.9-.94l-.08,0c1.18-.21,2.31-.51,2.78-1.81l0,.05,1-.48-.16,0c.26,0,.52-.07.54-.42l5.67-4.47.71-.5-.06,0,.51-.5,0,0,.5-.5-.05.05.5-.5-.05,0c.17-.17.34-.33.5-.5l0,0,.49-.5,0,0,.49-.5,0,0,.5-.5,0,.05.49-.72,1.33-1.6c2.55-1.19,2.91-5.08.66-7.15l-1-4.57a3.31,3.31,0,0,0,.06-2.6c-.77-3.49-1.47-7-2.3-10.47A4.24,4.24,0,0,1,191,74.9l-.09.07a1.88,1.88,0,0,0,1.45-1l-.08.06,1-.48-.06,0,.51-.48h-.09a1.37,1.37,0,0,0,1.41-1l-.06,0a1.39,1.39,0,0,0,1.42-1l-.06,0a1.37,1.37,0,0,0,1.41-.95l-.06.06A1.8,1.8,0,0,0,199.09,69.48Z"/><path class="cls-1" d="M148.57,40.25a2.55,2.55,0,0,1-1.36,1.34c-.48-.11-.74.14-.9.55l.08,0a33.73,33.73,0,0,1-8.78.95l.1.07a2.67,2.67,0,0,0-2.32-1.47h.08l-.5-.49,0,.07a1.27,1.27,0,0,0-1-.95l.06,0c-.59-3.39-2.76-6.42-2.24-10.07.07-.48-.47-.69-.92-.81l-.19,0h-.18a20.23,20.23,0,0,0-2.47.13c-2.28.39-4.54.89-6.81,1.29-1.33.24-2.48-.15-2.83-1.56s.78-1.91,1.8-2.13c3.75-.78,7.16-2.58,10.87-3.46a157.12,157.12,0,0,1,16.54-2.88,76.52,76.52,0,0,1,8.62-.67c3.21,0,6.46.26,9.63-.24s6.16,1.43,9.37.82c.56-.1.32.69.41,1.09l0,0a6,6,0,0,0-3.52,1.35,7.73,7.73,0,0,1-4.62,1.6c-3.47-.3-6.84.77-10.33.35-1.7-.2-3.54.48-5.27.93-.91.24-1.08,1.13-1,2a14.8,14.8,0,0,1-2.28,10.3A1.6,1.6,0,0,0,148.57,40.25Z"/><path class="cls-1" d="M275.86,6.4a5.51,5.51,0,0,1,.46,3.07c0,6.32,0,12.64,0,19,0,1.7-.61,3.84,2.4,3.73,2.3-.08,2.57-.32,2.53-3.62-.11-8.4-.25-16.8-.35-25.2a18.7,18.7,0,0,1,.22-2.23l.08.08-.08.09c-1.1-.89-2.41-.71-3.68-.71H101.06C88.27.56,75.48.27,62.7.68c-8.41.27-16.83-.1-25.24.54C35.73,1.35,34,.57,32.84,2.8c-.53,1-2,.05-2.77-.6A4.61,4.61,0,0,0,26.57,1C18.85,1.52,11.14.94,3.42.94,1.32,1,.48,1.56.49,3.77.55,23.84.52,43.92.53,64c0,.8-.21,1.66.37,2.36,1,.19.57-1.43,1-1A5.8,5.8,0,0,1,4,67.62c.24.71.44,1.44.65,2.16a8.22,8.22,0,0,0,.74,1.89c0-6.27.18-12.55-.07-18.81-.12-3,.18-6,.16-9-.1-11.48,0-23,0-34.45,0-1-.11-2.12.67-3C6.07,13.24,6,20.07,6,26.89c0,16.15-.11,32.3.11,48.45.3,21.55-.08,43.09.15,64.64,0,2.7.11,5.41.16,8.11-1-.47-1-1.42-1-2.32,0-2.4,0-4.81,0-7.21-.15-8-.25-16.08-.17-24.1.06-7.19-.22-14.41.17-21.61a5.05,5.05,0,0,0-.33-2.66C4.46,89,3.68,88.5,2.52,89.73a7.87,7.87,0,0,0-2,5.79c0,15.34,0,30.69,0,46,0,2.78-.07,5.57.1,8.35.19,3,.52,3.19,3.41,3.18,5.52,0,5.06.42,5-4.92,1.26,1.49.68,3.32.82,5,.06.67-.73.63-1.23.62-2.33,0-4.66-.13-7-.11-1,0-1.37-.36-1.41-1.28s-.18-1.95-.18-2.92Q0,76,0,2.59C0,1,.33.45,2.05.39c14-.5,28-.31,42-.31Q161.46,0,278.91,0c2.43,0,2.9.7,2.87,3-.13,9.33-.09,18.65,0,28,0,1.71-.42,2.16-2.13,2.05-3.8-.24-3.76-.15-3.81-4.05-.1-7.06.31-14.13-.29-21.19.1-.46.21-.92.31-1.37Zm-245-4.81.28-.18s-.1-.15-.11-.14a2.19,2.19,0,0,0-.29.17Z"/><path class="cls-1" d="M9,148.16c.06,5.34.52,4.92-5,4.92-2.89,0-3.22-.22-3.41-3.18-.17-2.78-.1-5.57-.1-8.35,0-15.34,0-30.69,0-46a7.87,7.87,0,0,1,2-5.79c1.16-1.23,1.94-.78,2.58.46a5.05,5.05,0,0,1,.33,2.66c-.39,7.2-.11,14.42-.17,21.61-.08,8,0,16.07.17,24.1.05,2.4,0,4.81,0,7.21,0,.9-.09,1.85,1,2.32Z"/><path class="cls-1" d="M92.08,119.35l.92-.62c.8.15.84-.43.92-1l.35-.35.59-.47,0,0,.49-.49h-.08a1.64,1.64,0,0,0,1.37-1l-.07.05a3.53,3.53,0,0,0,1.91-1.83l0,.1.51-.5h-.13a1.51,1.51,0,0,0,1.46-1.38v.1l.5-.5h-.08l.63,0,.36.36.54.55,1.27,1.27.55,1-.07-.09,1,1,0-.16.17,0c0,.49.14.77.68.67a1.57,1.57,0,0,1,.89,1.11l.5.72,0-.06.49.5,0,0,.49.5,0-.05.5.5v-.09c.41,1.19-.17,2.25-.46,3.34l-3.07,3.08-.55.54-.38.37-1,.55.09-.08-.53.51.16,0v.17c-.46,0-.72.15-.63.65l-.93.88-1-.41L98.44,127l-.47-.59v.11a1.71,1.71,0,0,0-1.56-1.43,11.7,11.7,0,0,1-1.73-1.39c-1.84-2.16-1.9-2.23-3.94-.15-1.44,1.47-2.46,3.3-4,4.71-1,.87-1.55,1.11-2.82.29a20.86,20.86,0,0,1-4-3.45c0-.31-.22-.39-.46-.44h.09l-.57-.46-.37-.36-.46-.58v.09a1.27,1.27,0,0,0-1-1l.08,0-.49-.5,0,0-.71-.49c-.52-1.13.63-1.38,1.12-1.82,2.19-2,4.45-3.9,6-6.53.59-1,1.26-1.26,2.19-.2S87.48,115,88.56,116c-.13,1.09.66,1.22,1.43,1.37l.81.8.46.58v-.09C91.32,119.19,91.54,119.47,92.08,119.35Z"/><path class="cls-1" d="M215.26,149.5c-.58.3-.33.9-.49,1.35-.24-.17-.63-1.1-.67,0-.1,2.4,0,4.81-.07,7.21,0,1.49.28,3.14-2.11,3.11s-2-1.61-2-3c0-5,0-10.07,0-15.11,0-.84-.48-2.14.51-2.43a4.53,4.53,0,0,1,3.72.15,14.58,14.58,0,0,1,1.71,1.45l-.05-.06a2,2,0,0,0,1,1.86l0-.14a1.35,1.35,0,0,0,.88,1.49l0-.05a3.72,3.72,0,0,0,1.86,3.22l0-.07a2,2,0,0,0,1,1.86l-.13,0c.16.17.33.34.49.52l0-.07.48,1,0-.07.48.93c1.25-.91,1.46-2.48,2.33-3.64a1.43,1.43,0,0,0,.75-1.4l-.06.1a4.05,4.05,0,0,0,1.87-3.26l-.06.1a3.94,3.94,0,0,0,1.86-3.26l0,.09c3.37-1.75,5.13-1.25,5.23,1.66.19,5.39.18,10.79.27,16.19,0,1.44-.67,2-2.07,2-1.7.05-2.39-.58-2.46-2.34-.11-3.13.54-6.29-.42-9.38-1.25.67-1.13,2.3-2.17,3.13a2.26,2.26,0,0,0-1.38,2.4l0-.13-.48,1,.09-.08a4.81,4.81,0,0,0-.73.52c-2.42,2.48-3.4,2.33-5.13-.74-.69-1.22-1.2-2.59-2.47-3.39l0,.1A3,3,0,0,0,215.26,149.5Z"/><path class="cls-1" d="M167.94,160.34c-3.12-3.36-5.69-7.2-9-10.41h0l-.07.45c-.78.4-.58,1.09-.56,1.77.08,2.18.09,4.36.16,6.53,0,1.44-.21,2.52-2,2.51s-2-1.09-2-2.52q0-7.21,0-14.44c0-4.28-.59-3.63,3.66-3.82l0,0c0,.27.12.49.44.49q4.13,4.89,8.25,9.78c.37.43.65,1,1.36,1.08.84-.65.74-1.58.74-2.48,0-2,0-4.06,0-6.09,0-1.46.06-2.72,2.09-2.69s1.93,1.44,1.94,2.82c0,5,0,9.93,0,14.89,0,2.91-.13,3-3.07,3h-1.13l-.31-.35C168.37,160.59,168.28,160.35,167.94,160.34Z"/><path class="cls-1" d="M24,148.1a11.61,11.61,0,0,0,4.43-4.23,2.74,2.74,0,0,1,1-1.19l.43-.5.38-.4.57-.47-.05,0,.49-.5h-.1a8.67,8.67,0,0,1,5.47,0l.08.08-.46,1.41v-.09l-.48.5,0,0-.5.48,0,0-.48.49c-1.12,1.41-2,3-3.5,4.12a1.6,1.6,0,0,0-.55,1.59l.46.6v-.09a2.56,2.56,0,0,0,1.42,2.33l0-.09a1.38,1.38,0,0,0,.89,1.41h0c.16.32.32.64.47,1v-.1a1.44,1.44,0,0,0,.9,1.43l.33.47.1.47,0-.11a3.07,3.07,0,0,0,1.4,2.34l0-.09c.52,2.88.36,3-2.64,2.8a6,6,0,0,1-2.48-.9l.07.08a2.12,2.12,0,0,0-1-1.88l.13,0-.51-.49c-1.08-1-1.38-2.41-2-3.66-.92-2-2-1.66-3.18-.42-.41.42-.76.9-1.14,1.35-.65,1.2-.42,2.5-.39,3.75,0,1.74-.88,2.15-2.4,2.16S19,161.07,19,159.54q.06-8.53,0-17.07c0-1.69.67-2.44,2.4-2.46s2.06.92,2.14,2.41C23.65,144.31,23,146.27,24,148.1Z"/><path class="cls-1" d="M281.68,148.55v1.38a.66.66,0,0,0,0,.85v1c-2.07,1.7-4.49.65-6.74.84-1.22.1-1.78-.64-1.75-1.82s-.27-2.49,1.39-2.59c1.84-.12,1.82-1.16,1.81-2.61-.07-10.83,0-21.66-.07-32.48,0-1.68.54-2.53,2.34-2.45,1.38.06,2.62.1,2.59,2-.13,9.09.32,18.19-.3,27.28C280.75,142.78,280.51,145.73,281.68,148.55Z"/><path class="cls-1" d="M102.57,159.39l.81,1.36c-2.68.94-5,.67-6.82-1.8l0,.1a3.69,3.69,0,0,0-1.87-3.26l.08.09c-.76-2.15-1.87-2.43-3.55-.88l0-.13c-.8,1.32-.48,2.78-.47,4.18,0,1.56-.27,2.59-2.18,2.62s-2.36-1-2.39-2.66c-.09-5.68,1-11.33.47-17-.1-1,.37-1.54,1.42-1.53,2.92,0,5.86-.13,8.77.08,3.52.26,5.31,3,5.52,6.44.15,2.54-1.29,4.18-2.12,6.18l0-.06-1,.47,0-.06c0,.32,0,.63,0,1v-.09a2.28,2.28,0,0,0,1.44,2.31l-.07-.1a1.75,1.75,0,0,0,.93,1.47l0-.09A1.3,1.3,0,0,0,102.57,159.39Zm-11.23-9.1,0,0c.9,1.65,2.33.91,3.59.76a3.54,3.54,0,0,0,3.34-3.13,3.42,3.42,0,0,0-1.57-3.7,6.23,6.23,0,0,0-5.21-.27,1.15,1.15,0,0,0-.59.88C90.83,146.65,90.33,148.54,91.34,150.29Z"/><path class="cls-1" d="M58.7,156.82a6.08,6.08,0,0,0,4.59,0l.86-.23-.1.07.54-1-.07.06c1.48-.9,1.35-2.44,1.39-3.82.08-3.23,0-6.46,0-9.69,0-1.28.28-2.2,1.84-2.24s2.09.53,2.3,2c.59,4.13.24,8.26.4,12.38-.34,2.21-.75,4.39-2.73,5.82a.81.81,0,0,0-.9.58l.08-.06-1.44.52h.07a30.27,30.27,0,0,1-9.64,0l.11,0-1-.46.09.07-1-1,.07,0-.52-.51,0,.08a14.92,14.92,0,0,1-2-8.37c.17-2.76.19-5.52.25-8.28s.33-3,3.22-2.61c-.21.81-2.07,1.33-.49,2.47l.2.32.12-.12-.33-.2c.13-.35.28-.78.69-.77.8,0,.64.72.64,1.18,0,2.6,0,5.21,0,7.81,0,1.41-.13,2.86,1,4l-.08-.08.48,1v-.12a1.45,1.45,0,0,0,1,1s-.1,0-.1,0Z"/><path class="cls-1" d="M102.5,69.62,99,66l-.09-1.87v.09l.5-.5-.05,0,.5-.5,0,0,.5-.49,0,0,.5-.49h-.1a1.31,1.31,0,0,0,1-1v.11l.46-.61c1.48-1.66,3-3.27,4.42-5,.92-1.13,1.57-1,2.36.06.56.78,1.23,1.48,1.84,2.21l.56.6.79.81.55.54.81.82c0,.75.38,1.18,1.17,1.16l0,.2-.21,0a3,3,0,0,0,2.28,1.89l0,0c0,.49,0,1,0,1.47l0,0a1.27,1.27,0,0,0-1,1v-.11l-.49.5.09,0a1.61,1.61,0,0,0-1,1.15,54,54,0,0,1-5.6,6c-1.37,1.39-1.83-.2-2.57-.84.14-.77-.4-.82-.93-.87l0,0-.56-1,.07.1-.95-1,0,.08C103.49,70.11,103.36,69.38,102.5,69.62Z"/><path class="cls-1" d="M254.67,144.55c0,1.21-.06,2.43-.1,3.64.24,1.09,1.14.78,1.82.8,1.42.06,2.84,0,4.26,0,1.1,0,2.16.07,2.11,1.63-.05,1.39-1,1.47-2,1.47-1.27,0-2.54,0-3.81,0-.93,0-1.83,0-2.29,1l0-.09a3.56,3.56,0,0,0,0,4.1v-.1c.09,1,.75.76,1.46.74,2,0,4,0,6.05.13,1.23.06,1.94.66,1.82,2s-1.09,1.24-2,1.25c-3.3,0-6.61-.05-9.91,0-1.92.05-2.52-.83-2.45-2.6.18-4.64.25-9.28,0-13.93,0-.9.09-1.8.1-2.7s.39-1.37,1.35-1.39c3.38,0,6.75-.13,10.12-.21,1.33,0,2.43.16,2.39,1.89s-1.11,1.67-2.32,1.76C259.11,144.22,256.83,143.57,254.67,144.55Z"/><path class="cls-1" d="M162,42a23.35,23.35,0,0,1-5.34,7.2l-.44.17.06-.12-1,.93h.08a5.69,5.69,0,0,0-2.36.6,33.14,33.14,0,0,1-22.21.21c-2.48-.85-4.61-2.48-7.19-3.09l0,.06c.15-1.24.93-.84,1.61-.61s1.64.71,2.51.13l4.52,1c0,.63.43.68.89.76a49.76,49.76,0,0,0,12.55.25c2.37-.21,5-.08,6.86-2.18l-.09.06a1.79,1.79,0,0,0,1.45-.91l0,0c.16-.17.33-.33.5-.5l-.05,0,.5-.5-.1,0c2.72-1.67,3.83-4.24,4.11-7.28l-.07.08c1.54-1.33,1.83-3.13,1.88-5v.06c1.34-1.88,3.43-2.25,5.47-2.7h0L165.75,34l.06-.08a10.84,10.84,0,0,0-2.75,6v-.11l-.47,1v-.09c-.15.33-.31.66-.47,1v-.1Z"/><path class="cls-1" d="M6.36,6.37c1.19-.66,2.5-.45,3.76-.45,56.15,0,112.3.09,168.45-.1,11.64,0,23.3-.64,34.93-.28,19.92.62,39.83.23,59.74.36a4.58,4.58,0,0,1,2.62.5h0l-.51,0H67.29Q36.82,6.41,6.36,6.37Z"/><path class="cls-1" d="M175.69,21.82c-.09-.4.15-1.19-.41-1.09-3.21.61-6.13-1.34-9.37-.82s-6.42.21-9.63.24a76.52,76.52,0,0,0-8.62.67,157.12,157.12,0,0,0-16.54,2.88c-3.71.88-7.12,2.68-10.87,3.46-1,.22-2.14.76-1.8,2.13s1.5,1.8,2.83,1.56c2.27-.4,4.53-.9,6.81-1.29a20.23,20.23,0,0,1,2.47-.13c-3.69,1.44-7.65,1.82-11.44,2.84a142.92,142.92,0,0,0-19.6,6.92c-.26.11-.54.18-1.25.41a10.08,10.08,0,0,1,2.81-2.86c10-7.27,21.25-11.78,33.26-14.57,13.83-3.22,27.85-3,41.89-2.53.82,0,1.64,0,2.68,0A9.72,9.72,0,0,1,175.69,21.82ZM115.66,32l-.13.09.14.07Z"/><path class="cls-1" d="M130.48,89.35a1.69,1.69,0,0,1-2,1.55c-2.62-.16-5.25-.11-7.87-.22-6.87-.29-13.75.17-20.6-.76-2.17-.29-2.75-1-2-3.13.41-1.21.91-2.39,1.24-3.62.41-1.47-.14-2.34-1.79-2.27-.37,0-.75.07-1.12.06-6.59-.18-5-.75-7.59,5.78-1,2.48-2.18,3.53-4.71,3.31-1.12-.09-2.25,0-3.38,0-.37,0-1-.13-1.08,0-1.29,2.07-2,1.23-3.18-.25-.93-1.13-3.29-.54-4-2.46a1.8,1.8,0,0,1-.06-.22c2.33,1.84,5.1,2,7.89,2,.53,0,1,0,1.58,0,1.79-.07,4.16.52,5.23-.4,1.25-1.07,1.64-3.43,1.9-5.3.37-2.58,1.66-3.22,4.06-3.06A44.11,44.11,0,0,0,99.23,80c1.37-.12,1.73.21,1.19,1.61-.77,2-1.33,4.11-1.92,6.19-.18.65-.62,1.57.73,1.56,10.35-.09,20.69.83,31,.08A.6.6,0,0,0,130.48,89.35Z"/><path class="cls-1" d="M254.67,144.55c2.16-1,4.44-.33,6.66-.48,1.21-.09,2.28-.14,2.32-1.76s-1.06-1.92-2.39-1.89c-3.37.08-6.74.16-10.12.21-1,0-1.34.47-1.35,1.39s-.14,1.8-.1,2.7c.22,4.65.15,9.29,0,13.93-.07,1.77.53,2.65,2.45,2.6,3.3-.09,6.61,0,9.91,0,.9,0,1.88.08,2-1.25s-.59-2-1.82-2c-2-.09-4-.17-6.05-.13-.71,0-1.37.3-1.46-.74,2.85,0,5.71.09,8.57.05,1.17,0,1.76.14,1.69,1.56-.16,3.54.92,3.33-3.3,3.35-3.54,0-7.07-.05-10.61.06-1.43,0-1.92-.31-1.91-1.82,0-6.39,0-12.78-.06-19.17,0-1,.31-1.31,1.27-1.32q6.21,0,12.41-.18c1,0,1.57.18,1.45,1.34a11.28,11.28,0,0,0,0,2.25c.13,1.14-.39,1.37-1.42,1.35C260.08,144.49,257.37,144.54,254.67,144.55Z"/><path class="cls-1" d="M281.68,148.55c-1.17-2.82-.93-5.77-.73-8.68.62-9.09.17-18.19.3-27.28,0-1.86-1.21-1.9-2.59-2-1.8-.08-2.35.77-2.34,2.45,0,10.82,0,21.65.07,32.48,0,1.45,0,2.49-1.81,2.61-1.66.1-1.37,1.49-1.39,2.59s.53,1.92,1.75,1.82c2.25-.19,4.67.86,6.74-.84-.16.63.68,1.74-.83,1.71a.8.8,0,0,0-1,0l-1.79-.1a7,7,0,0,0-3.39-.15h-.43l-1.18,0c-.91-1.58-.26-3.35-.58-5-.21-1.06.85-.89,1.42-.8,1.69.28,1.93-.49,1.92-2-.06-11.06,0-22.11-.08-33.16,0-2,.49-2.76,2.48-2.44a7.19,7.19,0,0,0,2,0c1.26-.14,1.48.46,1.47,1.57Q281.69,129.94,281.68,148.55Z"/><path class="cls-1" d="M171.18,116.15a15.2,15.2,0,0,1,1.38-6.32c2.67-6.41,2.55-13.16,3-19.83a111.64,111.64,0,0,0,.08-19.09c-.26-2.57-.48-2.8-3-2.4-3.2.51-6.08,2.17-9.34,2.36,3.64-2,7.69-2.67,11.71-3.45,1-.2,1.11.34,1.14,1.11.1,1.87.35,3.74.33,5.61-.06,6.59.2,13.18-.37,19.78C175.5,101.57,174.42,109.1,171.18,116.15Z"/><path class="cls-1" d="M100.29,153.16c.83-2,2.27-3.64,2.12-6.18-.21-3.49-2-6.18-5.52-6.44-2.91-.21-5.85-.06-8.77-.08-1.05,0-1.52.49-1.42,1.53.56,5.69-.56,11.34-.47,17,0,1.7.41,2.69,2.39,2.66s2.19-1.06,2.18-2.62c0-1.4-.33-2.86.47-4.18,0,1.27.08,2.55,0,3.82,0,1.09.64,2.81-.21,3.14-1.36.55-3.07.24-4.63.25-.77,0-.71-.61-.71-1.13q0-10.12.07-20.24c0-.67.08-1.19.94-1.16,3.74.14,7.51-.45,11.2.45a6.77,6.77,0,0,1,5.32,6.21C103.62,149,103,151.58,100.29,153.16Z"/><path class="cls-1" d="M234.78,50.09a13.6,13.6,0,0,1-3.91,3,4.14,4.14,0,0,0-2.27,3.4c-.14,2.17-.79,4.31-.44,6.5s-.17,4.32-.18,6.48a2.4,2.4,0,0,0,2.32,2.72c4.23.74,8.17,2.44,12.13,4.06a3.14,3.14,0,0,1,1.83,1.58,70.31,70.31,0,0,0-14-4.74c-2.26-.46-3.34-1.77-3.23-4.32q.27-6.42,1-12.8a3.91,3.91,0,0,1,2-3.29Z"/><path class="cls-1" d="M188.74,150.83c0-3.15.07-6.31,0-9.46,0-1.5.43-1.87,1.89-1.86,3.59.05,3.6,0,3.62,3.49,0,5.7,0,11.41.08,17.12,0,1.45-.17,2.1-1.88,2-3.63-.1-3.63,0-3.64-3.68v-7.66Zm.86.22h0c0,2.78,0,5.57,0,8.35,0,1.43.43,2.26,2.06,2.26s2.05-.83,2-2.26q0-8.35,0-16.7c0-1.42-.41-2.3-2-2.29s-2.07.87-2.06,2.29C189.62,145.48,189.6,148.27,189.6,151.05Z"/><path class="cls-1" d="M57,154.9c-1.15-1.12-1-2.57-1-4,0-2.6,0-5.21,0-7.81,0-.46.16-1.17-.64-1.18-.41,0-.56.42-.69.77h0c-1.58-1.14.28-1.66.49-2.47-2.89-.39-3.17-.16-3.22,2.61s-.08,5.52-.25,8.28a14.92,14.92,0,0,0,2,8.37c-2.16-1.35-2.51-3.65-2.61-5.82-.2-4.19,0-8.41-.08-12.61,0-1.12.24-1.55,1.48-1.58,4-.1,3.88-.15,4.22,3.74S56.26,151,57,154.9Z"/><path class="cls-1" d="M195.57,116.17a8,8,0,0,1,.28-2C198.3,108,199,101.55,199.46,95c.51-7.77.7-15.56,1-23.35,0-.92.31-2-.88-2.54l1.89-1.38c-.93,4.13-.35,7.81-.87,11.5-.48,3.37,0,6.87-.15,10.31-.39,8-.81,16-3.51,23.59A9.49,9.49,0,0,1,195.57,116.17Z"/><path class="cls-1" d="M215.9,142.25a14.58,14.58,0,0,0-1.71-1.45,4.53,4.53,0,0,0-3.72-.15c-1,.29-.5,1.59-.51,2.43,0,5,0,10.08,0,15.11,0,1.4-.29,3,2,3s2.1-1.62,2.11-3.11c0-2.4,0-4.81.07-7.21,0-1.13.43-.2.67,0,0,.44,0,.88,0,1.32a5,5,0,0,0,0,3.64v.86a.81.81,0,0,0,0,.94c0,.15,0,.3,0,.45.07,3.59-1.14,4.49-4.75,3.62-.72-.17-.76-.55-.77-1.09,0-6.66-.07-13.32-.13-20,0-.61.14-.92.8-1.08C212.92,138.83,214.68,139.62,215.9,142.25Z"/><path class="cls-1" d="M148.57,40.25a1.6,1.6,0,0,1,.17-1.89A14.8,14.8,0,0,0,151,28.06c-.12-.92,0-1.81,1-2,1.73-.45,3.57-1.13,5.27-.93,3.49.42,6.86-.65,10.33-.35a7.73,7.73,0,0,0,4.62-1.6,6,6,0,0,1,3.52-1.35c-3.62,3.42-8.19,3.82-12.83,4-3.13.13-6.26.38-9.4.51-1.35.05-1.93.37-1.81,2C152,32.57,151.56,36.76,148.57,40.25Z"/><path class="cls-1" d="M158.11,140.41c-4.25.19-3.66-.46-3.66,3.82q0,7.22,0,14.44c0,1.43.2,2.52,2,2.52s2.08-1.07,2-2.51c-.07-2.17-.08-4.35-.16-6.53,0-.68-.22-1.37.56-1.77,0,3.23,0,6.46.11,9.69,0,1.29-.38,1.63-1.65,1.64-3.74,0-3.77.1-3.79-3.59,0-5.34-.05-10.67,0-16,0-.83-.48-2.25.44-2.39C155.3,139.53,157,138.81,158.11,140.41Z"/><path class="cls-1" d="M168.72,161.22h1.13c2.94,0,3.07-.13,3.07-3,0-5,0-9.93,0-14.89,0-1.38.16-2.78-1.94-2.82s-2.1,1.23-2.09,2.69c0,2,0,4.06,0,6.09,0,.9.1,1.83-.74,2.48-.05-3.61-.07-7.21-.17-10.82,0-1.15.46-1.32,1.47-1.34,4-.11,4-.15,4,3.8,0,5.34,0,10.68,0,16,0,.87.65,2.34-.52,2.53S169.87,162.77,168.72,161.22Z"/><path class="cls-1" d="M137.32,97.2c0-3,1.59-5.69,1.79-8.75.41-6.32-2.21-11.51-5.22-16.65a2.08,2.08,0,0,0-1.72-.92c.49-1.36,1.2-1,2-.24,5.66,5.93,7.47,19,3.6,26.05A3.27,3.27,0,0,1,137.32,97.2Z"/><path class="cls-1" d="M20.78,94.33a.87.87,0,0,1,0,.23c-3.64,8.29-1.5,17-1.7,25.51a15.47,15.47,0,0,0,.85,5.29,2.66,2.66,0,0,1-.15,2.58c-1.29-3.55-1.45-7.29-1.63-11-.19-4-.11-8-.16-12A18.75,18.75,0,0,1,20.78,94.33Z"/><path class="cls-1" d="M228.91,149.47c1,3.09.31,6.25.42,9.38.07,1.76.76,2.39,2.46,2.34,1.4,0,2.09-.56,2.07-2-.09-5.4-.08-10.8-.27-16.19-.1-2.91-1.86-3.41-5.23-1.66.77-1.5,4.09-2.54,5.53-1.74.69.39.42,1.06.42,1.61,0,6.29,0,12.58.06,18.87,0,1.31-.44,1.6-1.68,1.62-3.85,0-3.85.09-3.83-3.69C228.88,155.16,228.9,152.32,228.91,149.47Z"/><path class="cls-1" d="M70.49,154.45c-.16-4.12.19-8.25-.4-12.38-.21-1.52-.81-2.09-2.3-2S66,141,66,142.26c0,3.23,0,6.46,0,9.69,0,1.38.09,2.92-1.39,3.82,1.22-3.1.86-6.35.85-9.56a43,43,0,0,0-.2-5c-.16-1.37.16-1.81,1.63-1.79,4.11,0,4.11-.05,4.12,4.13,0,2.93,0,5.86,0,8.78C70.9,153.08,71.27,153.9,70.49,154.45Z"/><path class="cls-1" d="M97,102.56c3.87,1,7.66,2.42,11.78,2.08,5.8-.48,11.65.83,17.44-.32,1.75-.35,3.47-.88,5.2-1.32a13.42,13.42,0,0,1-7.8,2.24c-6.51,0-13,0-19.52,0A10.22,10.22,0,0,1,97,102.56Z"/><path class="cls-1" d="M123.66,48c2.58.61,4.71,2.24,7.19,3.09a33.14,33.14,0,0,0,22.21-.21,5.69,5.69,0,0,1,2.36-.6c-2.73,2.32-6.19,2.59-9.47,3-7.59.84-14.93-.06-21.48-4.48A7.13,7.13,0,0,1,123.66,48Z"/><path class="cls-1" d="M24,148.1c-1-1.83-.34-3.79-.44-5.68-.08-1.49-.36-2.43-2.14-2.41s-2.41.77-2.4,2.46q0,8.53,0,17.07c0,1.53.63,2.15,2.15,2.15s2.44-.42,2.4-2.16c0-1.25-.26-2.55.39-3.75.06,1.73.06,3.46.21,5.18.07.85-.07,1.13-1,1.23-4.63.46-4.62.49-4.62-4.08,0-5.41.06-10.82-.05-16.23,0-1.78.3-2.5,2.29-2.4,3.37.17,3.39,0,3.36,3.44C24.12,144.64,24,146.37,24,148.1Z"/><path class="cls-1" d="M208.12,72.45a52.46,52.46,0,0,0-2.71,15.72c-.18,3.84.44,7.5.46,11.24a6.87,6.87,0,0,1-1.3-4A75,75,0,0,1,205.9,76.7,7.32,7.32,0,0,1,208.12,72.45Z"/><path class="cls-1" d="M68.48,102.68c2,.23,3.62,1.75,5.75,1.66,1.56-.07,3.17.21,4.4-2.06,0,2.39,1.2,2.06,2.3,2,3.16-.18,6.37.11,9.47-.81C85.9,106.39,72.37,105.9,68.48,102.68Z"/><path class="cls-1" d="M263.7,103.54c1.1-2.11,3.15-3.54,3.83-6,1.14-4.1,2-8.12.37-12.28a7.5,7.5,0,0,1-.11-3.13c3.16,5.77,2.25,14.91-2,19.81A5.11,5.11,0,0,1,263.7,103.54Z"/><path class="cls-1" d="M254.65,153.15c.46-1,1.36-1,2.29-1,1.27,0,2.54,0,3.81,0,1.05,0,2-.08,2-1.47.05-1.56-1-1.61-2.11-1.63-1.42,0-2.84,0-4.26,0-.68,0-1.58.29-1.82-.8,2.42.63,4.89.29,7.32.22,1.71,0,1.81.77,1.67,2s.61,2.81-1.76,2.68S257,153.11,254.65,153.15Z"/><path class="cls-1" d="M62,68.16a16.74,16.74,0,0,1-3.66-1.6c-3.66-2-7.6-1.79-11.51-.89a15,15,0,0,1-3.93.74c6.26-3.58,12.33-2.71,18.26.82C61.5,67.44,62,67.6,62,68.16Z"/><path class="cls-1" d="M266.4,48.41c1-4.69,1.24-9.48,2-14.21.24-1.61-.53-1.36-1.56-1-1.86.74-3.33,2.34-5.48,2.43l8-4.58c-.59,5.31-1.11,10.3-1.74,15.27C267.46,47.1,267.34,48.05,266.4,48.41Z"/><path class="cls-1" d="M152.62,47.37c-1.84,2.1-4.49,2-6.86,2.18a49.76,49.76,0,0,1-12.55-.25c-.46-.08-.91-.13-.89-.76C139.16,49.36,146,49.7,152.62,47.37Z"/><path class="cls-1" d="M230.71,105.74c.65-1.16,1.78-1,2.81-1,6.53,0,13.06-.09,19.6,0a33.51,33.51,0,0,0,10.64-1.33,8.31,8.31,0,0,1-5.36,1.78H233.27A3.61,3.61,0,0,0,230.71,105.74Z"/><path class="cls-1" d="M256.88,88.94c-.73,1-1.91.85-2.88.86-6.66.09-13.31.08-20,.07a6.36,6.36,0,0,1-1.5-.38C240.65,89.38,248.77,89.41,256.88,88.94Z"/><path class="cls-1" d="M42,104.27a3.85,3.85,0,0,1,3.47-.23,59.64,59.64,0,0,0,9.27,2.43c.68.14,1.8,0,1.71,1.27Z"/><path class="cls-1" d="M152.05,103.5c5.43,1.56,10.89,1.32,16.37.36.64-.11,1.36-.32,1.77.49a61.59,61.59,0,0,1-12.5.89A8.79,8.79,0,0,1,152.05,103.5Z"/><path class="cls-1" d="M34.74,74.44a7.21,7.21,0,0,1-1,3.38,12.21,12.21,0,0,0-1.51,3.45c-.48,3.18-1.94,5.29-5.24,5.86a1.47,1.47,0,0,1,1.41-1.47c1.93,0,2.07-1.45,2.51-2.76A31.55,31.55,0,0,1,34.74,74.44Z"/><path class="cls-1" d="M71,85.37a2.56,2.56,0,0,1-1.53-1.8,30.28,30.28,0,0,0-4.17-11.63,3.1,3.1,0,0,1-.2-1.08c2.71,2.62,3.45,6.17,4.46,9.58Z"/><path class="cls-1" d="M151.25,116.87c-1.77,1.49-4.08,1.82-6.08,2.84-1.39.71-1.87,1.37-.29,2.46a7.15,7.15,0,0,1,2.78,2.57l-6.54-4.38Z"/><path class="cls-1" d="M150.34,82.61c.08,1.56-.68,2.9-1.17,4.3a20.88,20.88,0,0,0,.26,13.89,5.34,5.34,0,0,1-1.7-3.76C147.23,92,147.62,87.08,150.34,82.61Z"/><path class="cls-1" d="M210.34,103.92c4,.65,8,.4,12,.46.89,0,1.82-.11,2.45.75-4.09.1-8.19.45-12.25-.34A4.27,4.27,0,0,1,210.34,103.92Z"/><path class="cls-1" d="M191,74.9a4.24,4.24,0,0,0-.81,4.14c.83,3.48,1.53,7,2.3,10.47a3.31,3.31,0,0,1-.06,2.6c-1-4.63-2-9.28-3.07-13.9C189,76.53,189.31,75.44,191,74.9Z"/><path class="cls-1" d="M30.34,121.57c-.68-4.59-2.67-8.89-3-13.54-.06-.78-.85-1.85.53-2.34.11,4.54,1.35,8.84,2.7,13.13C30.82,119.69,31.74,120.76,30.34,121.57Z"/><path class="cls-1" d="M137.79,144a11.57,11.57,0,0,1,0,13.65l-.07-.06c.05-2.94,2.05-5.51,1.43-8.65-.34-1.69-1.23-3.18-1.43-4.88Z"/><path class="cls-1" d="M127.8,47.53c-.87.58-1.68.15-2.51-.13s-1.46-.63-1.61.61c-2.16-.9-3.55-2.82-5.39-4.2A84.74,84.74,0,0,0,127.8,47.53Z"/><path class="cls-1" d="M133.26,161.25c-3.92,2.42-9.48,1.55-13.33-2.08.06-.08.13-.15.19-.22,2.69,1.49,5.31,3.16,8.62,2.71,1.48-.21,3-.32,4.47-.47Z"/><path class="cls-1" d="M121.43,141.3c3.23-3.14,10.61-2.8,13.63,0l-.05.05a17.14,17.14,0,0,0-13.53,0Z"/><path class="cls-1" d="M130.93,29.44c.45.12,1,.33.92.81-.52,3.65,1.65,6.68,2.24,10.07C131.27,37.21,131.09,33.33,130.93,29.44Z"/><path class="cls-1" d="M205.43,117.77c-1.12,1.54-2.93,2-4.52,2.79s-2.42,1.07-.39,2.24c.36.21.57.68.86,1L197,121.34Z"/><path class="cls-1" d="M209.43,128.74c2.81,1.18,5-.42,7.21-1.69a4.75,4.75,0,0,1,2.41-1c-1.45,1-3,2-4.32,3.13C212.77,130.75,211.05,130.68,209.43,128.74Z"/><path class="cls-1" d="M118.71,157.65a11.11,11.11,0,0,1-.91-11.85l.07.06a21,21,0,0,0,.91,11.73Z"/><path class="cls-1" d="M166.17,30.77c-2,.45-4.13.82-5.47,2.7a2.93,2.93,0,0,1,2.48-2.73c1.5-.37,3-.83,4.83-1.36L165.75,34c.14-1.08.27-2.16.41-3.24Z"/><path class="cls-1" d="M226.71,117.07a61.46,61.46,0,0,1,4.11-11.39A33.57,33.57,0,0,1,226.71,117.07Z"/><path class="cls-1" d="M216.62,152.18c1.27.8,1.78,2.17,2.47,3.39,1.73,3.07,2.71,3.22,5.13.74a4.81,4.81,0,0,1,.73-.52c-.52,2-1.57,3.09-3.8,2.77-.71-.11-1.22-.2-1.58-.91C218.63,155.8,217.61,154,216.62,152.18Z"/><path class="cls-1" d="M36.19,142.33c.15-.47.31-.94.46-1.41l0-.1-.11,0a8.67,8.67,0,0,0-5.47,0c.54-1.26,1.59-1.39,2.79-1.34,1.42.06,2.84,0,4.49,0A6.23,6.23,0,0,1,36.19,142.33Z"/><path class="cls-1" d="M55.93,161.26a30.27,30.27,0,0,0,9.64,0C62.35,163.16,59.13,162.93,55.93,161.26Z"/><path class="cls-1" d="M219.5,69A12.83,12.83,0,0,0,210,70.49C212.67,67.61,216.64,67,219.5,69Z"/><path class="cls-1" d="M137.61,43a33.73,33.73,0,0,0,8.78-.95C143.63,44,140.73,44.58,137.61,43Z"/><path class="cls-1" d="M158.9,38.36c-.28,3-1.39,5.61-4.11,7.28C156.59,43.45,157.52,40.78,158.9,38.36Z"/><path class="cls-1" d="M163.45,70.79a13.93,13.93,0,0,1-6.83,3.72A21.23,21.23,0,0,1,163.45,70.79Z"/><path class="cls-1" d="M247.42,58.41a21.29,21.29,0,0,1,8.69-4.57A79,79,0,0,1,247.42,58.41Z"/><path class="cls-1" d="M31.54,160.76a6,6,0,0,0,2.48.9c3,.22,3.16.08,2.64-2.8l2.15,3.27c-2.11,0-4,0-5.81,0C32,162.15,31.75,161.51,31.54,160.76Z"/><path class="cls-1" d="M232,89.45c-2-2.54-2.44-5.63-3.06-8.66C230.55,83.47,230.93,86.58,232,89.45Z"/><path class="cls-1" d="M193.44,96.68c2.25,2.07,1.89,6-.66,7.15C195.07,101.64,193.9,99.13,193.44,96.68Z"/><path class="cls-1" d="M158,113.31c-1.81,2.11-4.29,2.93-6.85,3.58A40.93,40.93,0,0,1,158,113.31Z"/><path class="cls-1" d="M201.29,123.78c2.51.36,4.3,1.9,6,3.66A36.28,36.28,0,0,1,201.29,123.78Z"/><path class="cls-1" d="M153,128.32c2.17,1.16,4.34.79,6.51,0C156.64,130.6,155.65,130.6,153,128.32Z"/><path class="cls-1" d="M96.56,159c1.78,2.47,4.14,2.74,6.82,1.8.46.56.45.92-.4.92-1.42,0-2.85.05-4.26,0C97.05,161.56,97.11,160,96.56,159Z"/><path class="cls-1" d="M29.43,102.12c1.61-1.43,4.52-1.12,6.67.72C33.89,102.46,31.79,101.05,29.43,102.12Z"/><path class="cls-1" d="M127.27,82.68c2.12.83,2.61,2.62,2.69,4.64C129.06,85.77,128.16,84.23,127.27,82.68Z"/><path class="cls-1" d="M242.5,61.92c-.94-.73-.43-1.26.28-1.66a7.7,7.7,0,0,1,3.83-1.46c-1.14.66-2.28,1.33-3.43,2C242.73,61,242.17,61.21,242.5,61.92Z"/><path class="cls-1" d="M163.88,109.65a6.79,6.79,0,0,1-5,3.22Z"/><path class="cls-1" d="M205.85,99.38a16.56,16.56,0,0,1,3.63,4.11A7,7,0,0,1,205.85,99.38Z"/><path class="cls-1" d="M163.06,39.89a10.84,10.84,0,0,1,2.75-6A26.5,26.5,0,0,1,163.06,39.89Z"/><path class="cls-1" d="M212.18,114.16a4.63,4.63,0,0,1-4.13,2.29A16.87,16.87,0,0,1,212.18,114.16Z"/><path class="cls-1" d="M91.25,155c1.68-1.55,2.79-1.27,3.55.88C93.91,154.4,92.52,154.94,91.25,155Z"/><path class="cls-1" d="M160.71,33.41c-.05,1.9-.34,3.7-1.88,5C159.45,36.76,160.08,35.09,160.71,33.41Z"/><path class="cls-1" d="M259.61,36.55a5.56,5.56,0,0,1-4.18,2.28A17.68,17.68,0,0,1,259.61,36.55Z"/><path class="cls-1" d="M262.33,50.67c.56-1.54,1.9-1.68,3.24-1.8A9.83,9.83,0,0,1,262.33,50.67Z"/><path class="cls-1" d="M266.94,80.41a5.11,5.11,0,0,1-2.34-3.69A10.54,10.54,0,0,1,266.94,80.41Z"/><path class="cls-1" d="M27.08,87.08a5.37,5.37,0,0,1-2.78,2.77A5,5,0,0,1,27.08,87.08Z"/><path class="cls-1" d="M108,122.49c.29-1.09.87-2.15.46-3.34C110.78,120.61,109,121.5,108,122.49Z"/><path class="cls-1" d="M219.51,148.57a3.72,3.72,0,0,1-1.86-3.22A10.79,10.79,0,0,1,219.51,148.57Z"/><path class="cls-1" d="M221.75,70.46c-1-.13-2-.29-2-1.64C220.5,69.25,221.4,69.52,221.75,70.46Z"/><path class="cls-1" d="M254.67,157.16a3.56,3.56,0,0,1,0-4.1C254.69,154.42,254.68,155.79,254.67,157.16Z"/><path class="cls-1" d="M228.41,141.25a3.94,3.94,0,0,1-1.86,3.26A12.13,12.13,0,0,1,228.41,141.25Z"/><path class="cls-1" d="M181.43,128.78l3.3-1C183.67,128.27,183,130.16,181.43,128.78Z"/><path class="cls-1" d="M149.74,101.23a3.69,3.69,0,0,1,2.39,2.35A3.92,3.92,0,0,1,149.74,101.23Z"/><path class="cls-1" d="M94.72,155.79a3.69,3.69,0,0,1,1.87,3.26A10.8,10.8,0,0,1,94.72,155.79Z"/><path class="cls-1" d="M129.82,87.31c1.58.33,1.5,1.13.59,2.15C130.22,88.74,130,88,129.82,87.31Z"/><path class="cls-1" d="M151.61,80.28c.1,1.09.09,2.11-1.31,2.37A5.71,5.71,0,0,1,151.61,80.28Z"/><path class="cls-1" d="M119.15,143.54c.47-.73.63-1.77,1.8-1.82l.08.08a2.31,2.31,0,0,1-1.8,1.81Z"/><path class="cls-1" d="M226.61,144.41a4.05,4.05,0,0,1-1.87,3.26A10.8,10.8,0,0,1,226.61,144.41Z"/><path class="cls-1" d="M180.14,115.1c-.47,1.3-1.6,1.6-2.78,1.81A7.78,7.78,0,0,1,180.14,115.1Z"/><path class="cls-1" d="M225.36,74.07c-1.36-.18-1.65-1.21-1.84-2.31A7.37,7.37,0,0,1,225.36,74.07Z"/><path class="cls-1" d="M170.2,118.32c-.52-1.15.15-1.75,1-2.24A5,5,0,0,1,170.2,118.32Z"/><path class="cls-1" d="M167.49,107c-.26,1.26-1.19,1.68-2.32,1.85A7.56,7.56,0,0,1,167.49,107Z"/><path class="cls-1" d="M215.26,149.5a3,3,0,0,1,1.41,2.78A6.09,6.09,0,0,1,215.26,149.5Z"/><path class="cls-1" d="M23.13,128.73c.05-1.49,1.11-1.94,2.31-2.26Z"/><path class="cls-1" d="M229,80.87a3.06,3.06,0,0,1-1.38-2.82A5.89,5.89,0,0,1,229,80.87Z"/><path class="cls-1" d="M225.36,155a2.26,2.26,0,0,1,1.38-2.4A6.87,6.87,0,0,1,225.36,155Z"/><path class="cls-1" d="M237.94,48.29a2.31,2.31,0,0,1-2.36,1.37A6.37,6.37,0,0,1,237.94,48.29Z"/><path class="cls-1" d="M136.07,142.12a4,4,0,0,1,1.72,1.88l-.07.06a3.69,3.69,0,0,1-1.8-1.81Z"/><path class="cls-1" d="M207.17,127.39a2.48,2.48,0,0,1,2.33,1.38A5.48,5.48,0,0,1,207.17,127.39Z"/><path class="cls-1" d="M214.81,155.81a5,5,0,0,1,0-3.64C214.79,153.38,214.8,154.6,214.81,155.81Z"/><path class="cls-1" d="M23.48,90.72A3.2,3.2,0,0,1,21.64,93,4.28,4.28,0,0,1,23.48,90.72Z"/><path class="cls-1" d="M32.64,152.18a2.56,2.56,0,0,1-1.42-2.33A6.29,6.29,0,0,1,32.64,152.18Z"/><path class="cls-1" d="M116.59,64.13a3,3,0,0,1-2.28-1.89C115.47,62.39,115.87,63.45,116.59,64.13Z"/><path class="cls-1" d="M175.64,117.75a3,3,0,0,1-2.8,1.43A8,8,0,0,1,175.64,117.75Z"/><path class="cls-1" d="M214.44,112.8c-.41,1.08-1.35,1.28-2.32,1.43Z"/><path class="cls-1" d="M264.66,76.77a1.2,1.2,0,0,1-1.21-1.55Z"/><path class="cls-1" d="M245.08,78.21a2.3,2.3,0,0,1,2.34,1.37A6.34,6.34,0,0,1,245.08,78.21Z"/><path class="cls-1" d="M170.16,104.78c.21,0,.49-.17.62-.08s0,.39-.16.46c-.45.19-.93.32-1.4.48Z"/><path class="cls-1" d="M36.69,159a3.07,3.07,0,0,1-1.4-2.34A5.11,5.11,0,0,1,36.69,159Z"/><path class="cls-1" d="M274.71,153.17a7,7,0,0,1,3.39.15A7.2,7.2,0,0,1,274.71,153.17Z"/><path class="cls-1" d="M98.86,64.09,99,66C98.1,65.37,97.63,64.77,98.86,64.09Z"/><path class="cls-1" d="M253.73,39.72a2.85,2.85,0,0,1-2.35,1.36A5,5,0,0,1,253.73,39.72Z"/><path class="cls-1" d="M100.83,156.68a2.28,2.28,0,0,1-1.44-2.31C99.8,155.18,100.67,155.71,100.83,156.68Z"/><path class="cls-1" d="M135.39,41.64a2.67,2.67,0,0,1,2.32,1.47A3.71,3.71,0,0,1,135.39,41.64Z"/><path class="cls-1" d="M64.69,70.45A1.59,1.59,0,0,1,63.28,69,3,3,0,0,1,64.69,70.45Z"/><path class="cls-1" d="M153.39,77.59c.34,1.15-.57,1.46-1.27,1.91A3.3,3.3,0,0,1,153.39,77.59Z"/><path class="cls-1" d="M128.2,75.79a3.9,3.9,0,0,1-1.88,1.86A2.32,2.32,0,0,1,128.2,75.79Z"/><path class="cls-1" d="M98.43,113.71a3.53,3.53,0,0,1-1.91,1.83C96.72,114.48,97.56,114.07,98.43,113.71Z"/><path class="cls-1" d="M92.17,101.73c.25-.82.54-1.62,1.61-1.66C93.32,100.69,93,101.46,92.17,101.73Z"/><path class="cls-1" d="M150.25,126.5a2,2,0,0,1,1.9,1.35A4.58,4.58,0,0,1,150.25,126.5Z"/><path class="cls-1" d="M171.49,122c.81.19,1.78.16,1.86,1.35Z"/><path class="cls-1" d="M263.35,75.4a3.71,3.71,0,0,1-1.89-1.87A2.36,2.36,0,0,1,263.35,75.4Z"/><path class="cls-1" d="M171.09,120c0,.54,0,1.09,0,1.64-.52-.14-1.15-.38-1.18-.89C169.85,120.06,170.63,120.16,171.09,120Z"/><path class="cls-1" d="M194.14,118.78c-.39-1,.33-1.41,1.05-1.79Z"/><path class="cls-1" d="M137.79,157.65a4.09,4.09,0,0,1-1.62,2l-.25-.23a4.36,4.36,0,0,1,1.8-1.81Z"/><path class="cls-1" d="M267.86,82.22a1.82,1.82,0,0,1-1-1.9A3.33,3.33,0,0,1,267.86,82.22Z"/><path class="cls-1" d="M148.4,125.17a2.3,2.3,0,0,1,2,1.39A3.68,3.68,0,0,1,148.4,125.17Z"/><path class="cls-1" d="M219,126.06a1.36,1.36,0,0,1,1.47-1.34Z"/><path class="cls-1" d="M136,99.07a2.41,2.41,0,0,1,1.39-2A3.64,3.64,0,0,1,136,99.07Z"/><path class="cls-1" d="M258.78,70.91a2.4,2.4,0,0,1-1.88-1.37A3.11,3.11,0,0,1,258.78,70.91Z"/><path class="cls-1" d="M177.44,116.88a2,2,0,0,1-1.9.94A2.74,2.74,0,0,1,177.44,116.88Z"/><path class="cls-1" d="M208.11,116.4c-.32.88-1.05,1-1.86,1A3.6,3.6,0,0,1,208.11,116.4Z"/><path class="cls-1" d="M245.69,63.23a3.1,3.1,0,0,1-2.34-.91A3.82,3.82,0,0,1,245.69,63.23Z"/><path class="cls-1" d="M241.54,46.51a1.93,1.93,0,0,1-1.9.89A1.88,1.88,0,0,1,241.54,46.51Z"/><path class="cls-1" d="M248.4,64.58a1.92,1.92,0,0,1-1.88-1A2.84,2.84,0,0,1,248.4,64.58Z"/><path class="cls-1" d="M90,117.41c-.77-.15-1.56-.28-1.43-1.37Z"/><path class="cls-1" d="M227.64,78.16a2.11,2.11,0,0,1-.94-1.9A2.72,2.72,0,0,1,227.64,78.16Z"/><path class="cls-1" d="M42.46,66.76a2.09,2.09,0,0,1-1.85,1A2.9,2.9,0,0,1,42.46,66.76Z"/><path class="cls-1" d="M119.93,159.17l-1.22-1.52.07-.06a2.07,2.07,0,0,1,1.34,1.36C120.06,159,120,159.09,119.93,159.17Z"/><path class="cls-1" d="M220.47,150.36a2,2,0,0,1-1-1.86A3,3,0,0,1,220.47,150.36Z"/><path class="cls-1" d="M197.74,70.4a1.37,1.37,0,0,1-1.41.95Z"/><path class="cls-1" d="M184.69,127.87a1.37,1.37,0,0,1,1.41-.94Z"/><path class="cls-1" d="M257.8,53a2,2,0,0,1,1.88-1A3.9,3.9,0,0,1,257.8,53Z"/><path class="cls-1" d="M260.51,51.61a2,2,0,0,1,1.86-1Z"/><path class="cls-1" d="M247.34,79.55a1.31,1.31,0,0,1,1.41,1Z"/><path class="cls-1" d="M156.66,74.47c-.17.69-.49,1.18-1.32,1Z"/><path class="cls-1" d="M124.76,78.9l.74,1.62C125,80.08,124.12,79.84,124.76,78.9Z"/><path class="cls-1" d="M217.1,111.48a1.67,1.67,0,0,1-1.35.49C216.05,111.4,216.58,111.46,217.1,111.48Z"/><path class="cls-1" d="M114.54,62.06c-.79,0-1.14-.41-1.17-1.16Z"/><path class="cls-1" d="M261.52,73.6a3,3,0,0,1-1.42-1.41A1.46,1.46,0,0,1,261.52,73.6Z"/><path class="cls-1" d="M102.5,69.62c.86-.24,1,.49,1.3,1C103.06,70.69,102.84,70.08,102.5,69.62Z"/><path class="cls-1" d="M217.69,145.4a1.35,1.35,0,0,1-.88-1.49A2.66,2.66,0,0,1,217.69,145.4Z"/><path class="cls-1" d="M188.3,125.21a1.64,1.64,0,0,1,1.43-1.44Z"/><path class="cls-1" d="M224.8,147.57a1.43,1.43,0,0,1-.75,1.4A1.68,1.68,0,0,1,224.8,147.57Z"/><path class="cls-1" d="M33.48,153.5a1.38,1.38,0,0,1-.89-1.41Z"/><path class="cls-1" d="M196.39,71.3a1.39,1.39,0,0,1-1.42,1A2.87,2.87,0,0,1,196.39,71.3Z"/><path class="cls-1" d="M195,72.2a1.37,1.37,0,0,1-1.41,1Z"/><path class="cls-1" d="M40.65,67.72a1.35,1.35,0,0,1-1.25,1C39.54,68,40.23,68,40.65,67.72Z"/><path class="cls-1" d="M96.41,125.11A1.71,1.71,0,0,1,98,126.54Z"/><path class="cls-1" d="M34.84,155.78a1.44,1.44,0,0,1-.9-1.43A2.75,2.75,0,0,1,34.84,155.78Z"/><path class="cls-1" d="M215.79,111.93a1.34,1.34,0,0,1-1.42.93A2.73,2.73,0,0,1,215.79,111.93Z"/><path class="cls-1" d="M160.34,128a2.13,2.13,0,0,1,1.27-1C161.51,127.68,161,127.92,160.34,128Z"/><path class="cls-1" d="M250.57,66a2.11,2.11,0,0,1-1.35-1C249.84,65.07,250.46,65.16,250.57,66Z"/><path class="cls-1" d="M248.69,80.44a1.46,1.46,0,0,1,1.39,1.09A2.64,2.64,0,0,1,248.69,80.44Z"/><path class="cls-1" d="M216.84,144.05a2,2,0,0,1-1-1.86A3,3,0,0,1,216.84,144.05Z"/><path class="cls-1" d="M100.23,111.92a1.51,1.51,0,0,1-1.46,1.38Z"/><path class="cls-1" d="M102.57,159.39a1.3,1.3,0,0,1-.91-1.43A2.76,2.76,0,0,1,102.57,159.39Z"/><path class="cls-1" d="M30.61,159a2.12,2.12,0,0,1,1,1.88A3,3,0,0,1,30.61,159Z"/><path class="cls-1" d="M135.07,160.36a3,3,0,0,1-1.81.89l0-.06a2,2,0,0,1,1.8-.9Z"/><path class="cls-1" d="M176.54,125.53c.52-.19.77.07.88.56Z"/><path class="cls-1" d="M165.26,108.8a1.89,1.89,0,0,1-1.44.92A2.06,2.06,0,0,1,165.26,108.8Z"/><path class="cls-1" d="M21.67,93a1.72,1.72,0,0,1-.94,1.45A2.34,2.34,0,0,1,21.67,93Z"/><path class="cls-1" d="M154,46.52a1.79,1.79,0,0,1-1.45.91A1.82,1.82,0,0,1,154,46.52Z"/><path class="cls-1" d="M118.24,144.89a1.92,1.92,0,0,1,.91-1.35l.08.07a1.78,1.78,0,0,1-.91,1.35Z"/><path class="cls-1" d="M105.16,72.33c.53,0,1.07.1.93.87Z"/><path class="cls-1" d="M192.35,74a1.88,1.88,0,0,1-1.45,1A2.86,2.86,0,0,1,192.35,74Z"/><path class="cls-1" d="M226.75,76.36a1.81,1.81,0,0,1-.95-1.48A2.42,2.42,0,0,1,226.75,76.36Z"/><path class="cls-1" d="M178.71,126.94a1.91,1.91,0,0,1,1.46.94A2.36,2.36,0,0,1,178.71,126.94Z"/><path class="cls-1" d="M129.12,74.47a1.8,1.8,0,0,1-1,1.39C128,75.08,128.69,74.86,129.12,74.47Z"/><path class="cls-1" d="M93.92,117.76c-.08.54-.12,1.12-.92,1Z"/><path class="cls-1" d="M131.4,103a1.81,1.81,0,0,1,1.44-.92A2.71,2.71,0,0,1,131.4,103Z"/><path class="cls-1" d="M96.59,115.49a1.64,1.64,0,0,1-1.37,1C95.6,116.06,95.8,115.38,96.59,115.49Z"/><path class="cls-1" d="M132.79,102.17a1.4,1.4,0,0,1,1-.94A1.82,1.82,0,0,1,132.79,102.17Z"/><path class="cls-1" d="M225.33,119.32a1.87,1.87,0,0,1,.95-1.45A2.67,2.67,0,0,1,225.33,119.32Z"/><path class="cls-1" d="M90.35,103.52a1.28,1.28,0,0,1,1.06-.91A1.74,1.74,0,0,1,90.35,103.52Z"/><path class="cls-1" d="M101.69,158.05a1.75,1.75,0,0,1-.93-1.47A2.1,2.1,0,0,1,101.69,158.05Z"/><path class="cls-1" d="M71.89,86.72a1.42,1.42,0,0,1-1-1.41Z"/><path class="cls-1" d="M168.87,106.05a1.84,1.84,0,0,1-1.43,1A1.77,1.77,0,0,1,168.87,106.05Z"/><path class="cls-1" d="M186.48,126.49a2,2,0,0,1,1.43-.92A2.2,2.2,0,0,1,186.48,126.49Z"/><path class="cls-1" d="M199.09,69.48a1.8,1.8,0,0,1-1.41,1A2.75,2.75,0,0,1,199.09,69.48Z"/><path class="cls-1" d="M116.54,65.58c0-.49,0-1,0-1.47C117.49,64.6,117.49,65.09,116.54,65.58Z"/><path class="cls-1" d="M177.37,126a1.92,1.92,0,0,1,1.44,1A2.64,2.64,0,0,1,177.37,126Z"/><path class="cls-1" d="M103.76,70.53l.95,1C104,71.57,103.71,71.22,103.76,70.53Z"/><path class="cls-1" d="M155.34,50.22l1-.93C156.29,49.92,155.85,50.11,155.34,50.22Z"/><path class="cls-1" d="M125.94,78l-1,1C125,78.41,125.21,78,125.94,78Z"/><path class="cls-1" d="M114.26,68a1.61,1.61,0,0,1,1-1.15Z"/><path class="cls-1" d="M77.16,122.41a1.27,1.27,0,0,1,1,1Z"/><path class="cls-1" d="M100.16,128.73l1,.41C100.58,129.59,100.41,129.07,100.16,128.73Z"/><path class="cls-1" d="M105.68,116.06c-.54.1-.71-.18-.68-.67Z"/><path class="cls-1" d="M220.84,124.38c.14-.41.33-.74.86-.62Z"/><path class="cls-1" d="M58.35,156.68a1.45,1.45,0,0,1-1-1Z"/><path class="cls-1" d="M135.06,141.31l1,.81-.15.13-.91-.89Z"/><path class="cls-1" d="M115.63,66.52a1.27,1.27,0,0,1,1-1Z"/><path class="cls-1" d="M146.31,42.14c.16-.41.42-.66.9-.55Z"/><path class="cls-1" d="M93.74,100.12l.19-.57.41.33Z"/><path class="cls-1" d="M134,40.27a1.27,1.27,0,0,1,1,.95A1.6,1.6,0,0,1,134,40.27Z"/><path class="cls-1" d="M135.49,99.82c-.12-.51.2-.71.59-.88Z"/><path class="cls-1" d="M102.09,128.26c-.09-.5.17-.67.63-.65Z"/><path class="cls-1" d="M96.13,101.64a1.27,1.27,0,0,1,1,1Z"/><path class="cls-1" d="M260.15,72.26l-1-.93C259.71,71.41,260.17,71.57,260.15,72.26Z"/><path class="cls-1" d="M154,76.81c.11.5-.2.72-.59.88Z"/><path class="cls-1" d="M101.59,61.36a1.31,1.31,0,0,1-1,1C101,62,101.27,61.69,101.59,61.36Z"/><path class="cls-1" d="M92.08,119.35c-.54.12-.76-.16-.82-.65Z"/><path class="cls-1" d="M136.17,159.63l-1.1.73-.06-.07.91-.89Z"/><path class="cls-1" d="M54.14,159.87l1,1C54.65,160.67,54.09,160.57,54.14,159.87Z"/><path class="cls-1" d="M66.86,160.85a.81.81,0,0,1,.9-.58Z"/><path class="cls-1" d="M275.35,6.42l.51,0c-.1.45-.21.91-.31,1.37Z"/><path class="cls-1" d="M65.5,161.31l1.44-.52C66.54,161.19,66.14,161.59,65.5,161.31Z"/><path class="cls-1" d="M104.87,115.59l-1-1C104.65,114.53,104.9,114.93,104.87,115.59Z"/><path class="cls-1" d="M94.32,99.86a1.36,1.36,0,0,1,1,1Z"/><path class="cls-1" d="M173,119.2l-1,.47C172.16,119.23,172.55,119.21,173,119.2Z"/><path class="cls-1" d="M224.93,119.85l.41-.63C225.33,119.51,225.25,119.76,224.93,119.85Z"/><path class="cls-1" d="M172.06,119.62l-1,.48C171.23,119.63,171.64,119.62,172.06,119.62Z"/><path class="cls-1" d="M79.42,124.68c.24,0,.46.13.46.44Z"/><path class="cls-1" d="M147.57,124.67l1,.48A.85.85,0,0,1,147.57,124.67Z"/><path class="cls-1" d="M103,127l1-.55C103.71,126.78,103.56,127.28,103,127Z"/><path class="cls-1" d="M152.12,127.81l1,.49A1,1,0,0,1,152.12,127.81Z"/><path class="cls-1" d="M159.39,128.34l1-.5A.67.67,0,0,1,159.39,128.34Z"/><path class="cls-1" d="M180.58,128.27l.95.47Z"/><path class="cls-1" d="M67.65,102.1l1,.51C68.15,102.79,67.9,102.46,67.65,102.1Z"/><path class="cls-1" d="M158.51,140.86c-.32,0-.41-.22-.44-.49Z"/><path class="cls-1" d="M29.81,142.18l-.43.5Z"/><path class="cls-1" d="M117.8,145.8c0-.36,0-.74.44-.91l.08.07-.45.9Z"/><path class="cls-1" d="M261.43,35.7l-1,.47A.92.92,0,0,1,261.43,35.7Z"/><path class="cls-1" d="M260.53,36.15l-1,.47C259.73,36.18,260.12,36.15,260.53,36.15Z"/><path class="cls-1" d="M255.56,38.85l-1,.46C254.75,38.87,255.14,38.83,255.56,38.85Z"/><path class="cls-1" d="M254.66,39.31l-1,.48A1,1,0,0,1,254.66,39.31Z"/><path class="cls-1" d="M162.58,40.77l.47-1C163.06,40.19,163.05,40.59,162.58,40.77Z"/><path class="cls-1" d="M162.12,41.67c.16-.33.32-.66.47-1C162.58,41.08,162.57,41.48,162.12,41.67Z"/><path class="cls-1" d="M251.49,41.09l-1.1.45A1,1,0,0,1,251.49,41.09Z"/><path class="cls-1" d="M239.76,47.42l-1,.48C239,47.45,239.35,47.41,239.76,47.42Z"/><path class="cls-1" d="M281.68,150.78a.66.66,0,0,1,0-.85Z"/><path class="cls-1" d="M238.86,47.88l-1,.47C238.06,47.89,238.46,47.88,238.86,47.88Z"/><path class="cls-1" d="M265.46,48.86l1-.49A1.07,1.07,0,0,1,265.46,48.86Z"/><path class="cls-1" d="M221.72,152.61l-.48-.93C221.67,151.85,221.65,152.26,221.72,152.61Z"/><path class="cls-1" d="M235.7,49.68l-1,.49A.94.94,0,0,1,235.7,49.68Z"/><path class="cls-1" d="M259.59,52l1-.47C260.37,52,260,52,259.59,52Z"/><path class="cls-1" d="M256.88,53.37l1-.47C257.68,53.34,257.29,53.37,256.88,53.37Z"/><path class="cls-1" d="M256,53.82l1-.46C256.79,53.81,256.4,53.85,256,53.82Z"/><path class="cls-1" d="M99.34,153.57l1-.47C100.14,153.53,99.75,153.58,99.34,153.57Z"/><path class="cls-1" d="M246.5,58.79l1-.47C247.31,58.77,246.9,58.77,246.5,58.79Z"/><path class="cls-1" d="M273.1,153.14l1.18,0A1.24,1.24,0,0,1,273.1,153.14Z"/><path class="cls-1" d="M243.47,62.32l-1-.45C242.83,61.91,243.26,61.86,243.47,62.32Z"/><path class="cls-1" d="M279.89,153.42a.8.8,0,0,1,1,0Z"/><path class="cls-1" d="M33.93,154.45c-.15-.32-.31-.64-.47-1C33.62,153.81,33.78,154.13,33.93,154.45Z"/><path class="cls-1" d="M99.38,154.46c0-.32,0-.63,0-1C99.38,153.83,99.38,154.14,99.38,154.46Z"/><path class="cls-1" d="M246.6,63.69l-1-.46C246,63.26,246.41,63.21,246.6,63.69Z"/><path class="cls-1" d="M249.3,65l-1-.45C248.69,64.62,249.12,64.57,249.3,65Z"/><path class="cls-1" d="M62.87,68.66l-1-.54C62.45,67.89,62.64,68.31,62.87,68.66Z"/><path class="cls-1" d="M257,69.53c-.28,0-.51-.09-.51-.44Z"/><path class="cls-1" d="M57.41,155.81l-.48-1A1,1,0,0,1,57.41,155.81Z"/><path class="cls-1" d="M222.65,70.92l-1-.46C222.06,70.49,222.46,70.49,222.65,70.92Z"/><path class="cls-1" d="M224.86,155.87l.48-1A.94.94,0,0,1,224.86,155.87Z"/><path class="cls-1" d="M104.64,71.41l.56,1C104.91,72.11,104.4,72,104.64,71.41Z"/><path class="cls-1" d="M193.26,73.59l-1,.48A.84.84,0,0,1,193.26,73.59Z"/><path class="cls-1" d="M64.59,155.71l-.54,1C63.81,156.13,64.29,156,64.59,155.71Z"/><path class="cls-1" d="M225.79,75l-.48-1A.93.93,0,0,1,225.79,75Z"/><path class="cls-1" d="M244.18,77.73l1,.46C244.77,78.19,244.38,78.15,244.18,77.73Z"/><path class="cls-1" d="M152.15,79.44c-.17.33-.33.65-.49,1A.78.78,0,0,1,152.15,79.44Z"/><path class="cls-1" d="M64.15,156.62l-.86.23C63.55,156.67,63.78,156.38,64.15,156.62Z"/><path class="cls-1" d="M126.85,82.27c.34,0,.42.21.46.49C127.15,82.6,127,82.43,126.85,82.27Z"/><path class="cls-1" d="M214.85,157.61a.81.81,0,0,1,0-.94Z"/><path class="cls-1" d="M159,112.88l-1,.48A1,1,0,0,1,159,112.88Z"/><path class="cls-1" d="M104,114.69l-.55-1C103.73,114,104.24,114.12,104,114.69Z"/><path class="cls-1" d="M181.46,114.23c0,.35-.28.38-.54.42Z"/><path class="cls-1" d="M181.08,114.67l-1,.48A.89.89,0,0,1,181.08,114.67Z"/><path class="cls-1" d="M195.1,117.09l.45-1C195.55,116.46,195.55,116.87,195.1,117.09Z"/><path class="cls-1" d="M167.94,160.34c.34,0,.43.25.47.53Z"/><path class="cls-1" d="M226.22,118c.15-.33.31-.66.47-1A.93.93,0,0,1,226.22,118Z"/><path class="cls-1" d="M55,160.78l1,.46C55.62,161.26,55.23,161.22,55,160.78Z"/><path class="cls-1" d="M206.36,117.39l-1,.47C205.57,117.44,206,117.41,206.36,117.39Z"/><path class="cls-1" d="M209.44,103.44l1,.47A1,1,0,0,1,209.44,103.44Z"/><path class="cls-1" d="M221.27,151.75l-.48-1A1,1,0,0,1,221.27,151.75Z"/><path class="cls-1" d="M115.15,66.91l.49-.5Z"/><path class="cls-1" d="M95.3,116.49l-.49.49Z"/><path class="cls-1" d="M149.42,100.72l.49.51C149.54,101.26,149.46,101,149.42,100.72Z"/><path class="cls-1" d="M133.64,101.18l.47-.05Z"/><path class="cls-1" d="M66.36,100.72l.5.49Z"/><path class="cls-1" d="M31.2,140.85l-.49.5A.51.51,0,0,1,31.2,140.85Z"/><path class="cls-1" d="M30.76,141.31l-.57.47Z"/><path class="cls-1" d="M121,141.72l.48-.42,0,.06-.45.44Z"/><path class="cls-1" d="M42.94,66.38l-.53.48C42.37,66.46,42.68,66.45,42.94,66.38Z"/><path class="cls-1" d="M99.37,63.68l-.5.5Z"/><path class="cls-1" d="M99.82,63.23l-.5.5Z"/><path class="cls-1" d="M107.07,117.89l-.5-.72Z"/><path class="cls-1" d="M35.71,142.74l.48-.5C36.15,142.52,36,142.73,35.71,142.74Z"/><path class="cls-1" d="M100.27,62.78l-.5.49Z"/><path class="cls-1" d="M100.72,62.33l-.5.49Z"/><path class="cls-1" d="M35.25,143.18l.5-.48C35.74,143,35.52,143.13,35.25,143.18Z"/><path class="cls-1" d="M102,60.86l-.46.61Z"/><path class="cls-1" d="M34.81,143.63l.48-.49Z"/><path class="cls-1" d="M65.87,100.29l.54.47Z"/><path class="cls-1" d="M112.56,60.08l-.55-.54Z"/><path class="cls-1" d="M111.22,58.73l-.56-.6Z"/><path class="cls-1" d="M156.24,49.41l.44-.17Z"/><path class="cls-1" d="M154.44,46.07c-.17.17-.34.33-.5.5A.52.52,0,0,1,154.44,46.07Z"/><path class="cls-1" d="M154.89,45.62l-.5.5Z"/><path class="cls-1" d="M162,42l.09-.47Z"/><path class="cls-1" d="M102.17,112.44l-.54-.55Z"/><path class="cls-1" d="M135,41.15l.5.49A.49.49,0,0,1,135,41.15Z"/><path class="cls-1" d="M29.83,122c.17-.17.33-.34.5-.5A.53.53,0,0,1,29.83,122Z"/><path class="cls-1" d="M76.09,121.48l.71.49Z"/><path class="cls-1" d="M171.09,121.48l.5.5C171.3,121.93,171.09,121.82,171.09,121.48Z"/><path class="cls-1" d="M29.38,122.43l.5-.5A.5.5,0,0,1,29.38,122.43Z"/><path class="cls-1" d="M76.75,121.93l.49.5A.5.5,0,0,1,76.75,121.93Z"/><path class="cls-1" d="M31.22,149.94l-.46-.6Z"/><path class="cls-1" d="M100.72,111.52l-.5.5Z"/><path class="cls-1" d="M28.93,122.88l.5-.5A.5.5,0,0,1,28.93,122.88Z"/><path class="cls-1" d="M101.27,111.53l-.63,0C100.87,111,101.07,111.19,101.27,111.53Z"/><path class="cls-1" d="M28.48,123.33c.16-.17.33-.33.5-.5A.51.51,0,0,1,28.48,123.33Z"/><path class="cls-1" d="M28,123.78l.49-.5Z"/><path class="cls-1" d="M220.83,150.84c-.16-.18-.33-.35-.49-.52C220.72,150.29,220.76,150.58,220.83,150.84Z"/><path class="cls-1" d="M78.11,123.28l.46.58Z"/><path class="cls-1" d="M189.62,123.78l.65-.47Z"/><path class="cls-1" d="M191.45,105.43l-.49.72Z"/><path class="cls-1" d="M27.57,124.23l.5-.49Z"/><path class="cls-1" d="M187.84,109.26l-.71.5A.73.73,0,0,1,187.84,109.26Z"/><path class="cls-1" d="M188.29,108.8l-.51.5C187.78,109,188,108.82,188.29,108.8Z"/><path class="cls-1" d="M24,90.29l-.49.51C23.5,90.49,23.62,90.28,24,90.29Z"/><path class="cls-1" d="M27.12,124.68l.5-.49Z"/><path class="cls-1" d="M78.94,124.22l.57.46Z"/><path class="cls-1" d="M220.33,124.69l.52-.49C220.88,124.58,220.66,124.7,220.33,124.69Z"/><path class="cls-1" d="M26.7,125.21c.16-.19.31-.38.46-.58C27,124.82,26.86,125,26.7,125.21Z"/><path class="cls-1" d="M169.33,105.65l-.51.49C168.82,105.79,169,105.68,169.33,105.65Z"/><path class="cls-1" d="M91.26,118.79l-.46-.58Z"/><path class="cls-1" d="M188.74,108.35l-.5.5A.48.48,0,0,1,188.74,108.35Z"/><path class="cls-1" d="M189.19,107.9l-.5.5A.5.5,0,0,1,189.19,107.9Z"/><path class="cls-1" d="M189.64,107.45c-.16.17-.33.33-.5.5A.5.5,0,0,1,189.64,107.45Z"/><path class="cls-1" d="M190.09,107l-.49.5A.48.48,0,0,1,190.09,107Z"/><path class="cls-1" d="M104.34,126.11l.55-.54Z"/><path class="cls-1" d="M190.54,106.55l-.49.5A.48.48,0,0,1,190.54,106.55Z"/><path class="cls-1" d="M24.42,89.84c-.17.16-.33.33-.5.5C23.91,90,24.06,89.81,24.42,89.84Z"/><path class="cls-1" d="M191,106.1l-.5.5A.47.47,0,0,1,191,106.1Z"/><path class="cls-1" d="M98,126.43l.47.59Z"/><path class="cls-1" d="M108,118.79l-.49-.5Z"/><path class="cls-1" d="M126,80.84l.07.46a1.54,1.54,0,0,1-.11-.3S126,80.89,126,80.84Z"/><path class="cls-1" d="M186,127l.51-.5Z"/><path class="cls-1" d="M35.27,156.72l-.1-.47Z"/><path class="cls-1" d="M102.55,127.46l.53-.51C103.19,127.42,103,127.58,102.55,127.46Z"/><path class="cls-1" d="M125.5,80.41l.49.51C125.64,80.93,125.52,80.71,125.5,80.41Z"/><path class="cls-1" d="M126.41,77.6l-.53.52C125.77,77.66,126,77.49,126.41,77.6Z"/><path class="cls-1" d="M58.7,156.82l-.45-.15Z"/><path class="cls-1" d="M129.61,74.06c-.17.16-.33.33-.49.5C129.28,74.39,129.44,74.22,129.61,74.06Z"/><path class="cls-1" d="M34.84,74.09c0,.16,0,.32,0,.49C34.82,74.41,34.83,74.25,34.84,74.09Z"/><path class="cls-1" d="M130.06,73.6l-.5.5A.53.53,0,0,1,130.06,73.6Z"/><path class="cls-1" d="M72.31,87.19l-.5-.49Z"/><path class="cls-1" d="M98.9,113.31l-.51.5C98.38,113.45,98.57,113.31,98.9,113.31Z"/><path class="cls-1" d="M108.42,119.24l-.5-.5Z"/><path class="cls-1" d="M180.12,127.79l.48.49Z"/><path class="cls-1" d="M193.71,73.16l-.51.48C193.18,73.28,193.44,73.21,193.71,73.16Z"/><path class="cls-1" d="M30.23,158.51l.51.49C30.38,159,30.31,158.77,30.23,158.51Z"/><path class="cls-1" d="M130.17,73.21c0,.15-.1.3-.14.46C130.07,73.51,130.12,73.36,130.17,73.21Z"/><path class="cls-1" d="M94.86,116.94l-.59.47Z"/><path class="cls-1" d="M53.69,159.41l.52.51C53.79,160,53.62,159.82,53.69,159.41Z"/><path class="cls-1" d="M223.53,71.85l-.5-.5Z"/><path class="cls-1" d="M259.2,71.39l-.5-.49C259,70.94,259.2,71.05,259.2,71.39Z"/><path class="cls-1" d="M91.24,102.59l.5-.51C91.76,102.44,91.61,102.62,91.24,102.59Z"/><path class="cls-1" d="M107.52,118.33l-.49-.5A.5.5,0,0,1,107.52,118.33Z"/><path class="cls-1" d="M223.08,71.4l-.5-.5Z"/><path class="cls-1" d="M91.69,102.14l.5-.51C92.19,102,92.05,102.16,91.69,102.14Z"/><path class="cls-1" d="M65.09,70.94c-.17-.16-.33-.33-.5-.5C64.76,70.61,64.92,70.78,65.09,70.94Z"/><path class="cls-1" d="M63.28,69.13l-.49-.49A.5.5,0,0,1,63.28,69.13Z"/><path class="cls-1" d="M95.63,101.2l.58.46Z"/><path class="cls-1" d="M66.82,101.16l.47.61Z"/><path class="cls-1" d="M55.54,82.32a11.44,11.44,0,0,0-10.8-.95C47.57,78.94,53.43,79.45,55.54,82.32Z"/><path class="cls-1" d="M62.42,93a19.85,19.85,0,0,0-2.81-6.69A6.63,6.63,0,0,1,62.42,93Z"/><path class="cls-1" d="M44.78,81.32a1.08,1.08,0,0,1-1,.48Z"/><path class="cls-1" d="M43.92,81.79c-.23.38-.48.69-1,.51Z"/><path class="cls-1" d="M56.48,82.74c-.5.16-.78-.11-1-.5C55.81,82.41,56.14,82.58,56.48,82.74Z"/><path class="cls-1" d="M42.06,83.62l-.45.49C41.65,83.85,41.72,83.61,42.06,83.62Z"/><path class="cls-1" d="M56.93,83.37c-.25-.18-.58-.29-.51-.7Z"/><path class="cls-1" d="M43.21,82.4a.42.42,0,0,1-.27.28A.33.33,0,0,1,43.21,82.4Z"/><path class="cls-1" d="M208.67,88.43c4.66,3.14,9.91,3.23,15.23,2.89-.58.92-1.52.82-2.4.81a36.59,36.59,0,0,1-9.92-1.26A3.78,3.78,0,0,1,208.67,88.43Z"/><polygon class="cls-1" points="281.13 1.27 281.21 1.19 281.13 1.11 281.01 1.19 281.13 1.27"/><path class="cls-1" d="M158.57,85c2.78-2.42,6.29-2.42,9.65-2.87.23,0,.54.25.74.46.81.85,1.2,7.13.54,8.15a1.36,1.36,0,0,1-1.14.59,63.15,63.15,0,0,1-11,.78,6.77,6.77,0,0,1-3.42-1c-1.24-.82-1.89-1.83-.36-3l0,0c-.68,1.87-.14,2.6,2,3.07,3.15.67,6.29.17,9.39-.16,4.52-.48,4.5-.65,3.92-5.26a6,6,0,0,1-.09-1.57c.22-1.6-.67-1.74-1.87-1.49a61.2,61.2,0,0,0-8.41,2.31Z"/><path class="cls-1" d="M154.48,87.26a1.55,1.55,0,0,1,1.39-.91v.05a2.37,2.37,0,0,1-1.36.89Z"/><path class="cls-1" d="M153.59,88.13a1,1,0,0,1,.89-.87l0,0-.9.88Z"/><path class="cls-1" d="M157.62,85.43l.95-.4,0,0-1,.39Z"/><path class="cls-1" d="M155.87,86.35l.88-.47v0c-.17.38-.53.41-.88.48Z"/><path class="cls-1" d="M156.75,85.88l.87-.45,0,0c-.18.39-.55.4-.9.46Z"/><path class="cls-1" d="M30.88,1.59l-.12-.15a2.19,2.19,0,0,1,.29-.17s.07.09.11.14Z"/><path class="cls-1" d="M159,149.93Z"/><path class="cls-1" d="M91.34,150.29c-1-1.75-.51-3.64-.46-5.48a1.15,1.15,0,0,1,.59-.88,6.23,6.23,0,0,1,5.21.27,3.42,3.42,0,0,1,1.57,3.7A3.54,3.54,0,0,1,94.91,151c-1.26.15-2.69.89-3.59-.76a33.31,33.31,0,0,0,3.6.06c2-.16,2.85-1.43,2.62-3.65-.2-2-1.55-2.6-4.68-2.62-2.3,0-1.51,1.54-1.57,2.63S91.32,149.09,91.34,150.29Z"/><path class="cls-1" d="M54.66,142.7l.33.2-.12.12-.2-.32Z"/><polygon class="cls-1" points="115.66 32.03 115.67 32.19 115.53 32.12 115.66 32.03"/><path class="cls-1" d="M189.6,151.05c0-2.78,0-5.57,0-8.35,0-1.42.44-2.29,2.06-2.29s2,.87,2,2.29q0,8.36,0,16.7c0,1.43-.41,2.26-2,2.26s-2.08-.83-2.06-2.26c0-2.78,0-5.57,0-8.35Z"/><path class="cls-1" d="M121,141.8l.45-.44a17.14,17.14,0,0,1,13.53,0l.91.89a3.69,3.69,0,0,0,1.8,1.81c.2,1.7,1.09,3.19,1.43,4.88.62,3.14-1.38,5.71-1.43,8.65a4.36,4.36,0,0,0-1.8,1.81l-.91.89a2,2,0,0,0-1.8.9c-1.49.15-3,.26-4.47.47-3.31.45-5.93-1.22-8.62-2.71a2.07,2.07,0,0,0-1.34-1.36,21,21,0,0,1-.91-11.73l.45-.9a1.78,1.78,0,0,0,.91-1.35A2.31,2.31,0,0,0,121,141.8Zm11.73,13.95-.1,0a1.33,1.33,0,0,0,1-1.43l-.07.1c2.11-2.23,1.92-6.15-.38-7.64-2.9-3-5-3.34-8.54-1.45l-.48.07.12,0,0,.11c-1.24.07-1.51.84-1.37,1.9l-.11,0,0-.12c-2,2.82-1.8,6.12.42,7.67l.44.71.47.66v-.11a1.25,1.25,0,0,0,1.45.92l-.1-.05c1.69,1.82,5.17,1.36,6.71-.88v.11Z"/><path class="cls-1" d="M166.17,30.77h0Z"/><polygon class="cls-1" points="36.57 140.84 36.68 140.82 36.65 140.92 36.57 140.84"/><path class="cls-1" d="M133.55,154.44a9.63,9.63,0,0,0-.38-7.64C135.47,148.29,135.66,152.21,133.55,154.44Z"/><path class="cls-1" d="M122.89,147.21c-.65,2.6-.91,5.18.42,7.67C121.09,153.33,120.91,150,122.89,147.21Z"/><path class="cls-1" d="M125.56,157a7.8,7.8,0,0,0,6.71-.88C130.73,158.37,127.25,158.83,125.56,157Z"/><path class="cls-1" d="M124.32,145.48c-.22.29-.45.57-.68.85l-.33.47-.36.58C122.81,146.32,123.08,145.55,124.32,145.48Z"/><path class="cls-1" d="M124.21,156.14c.48.31,1,.62,1.45.92A1.25,1.25,0,0,1,124.21,156.14Z"/><path class="cls-1" d="M132.66,155.77l1-1.43A1.33,1.33,0,0,1,132.66,155.77Z"/><path class="cls-1" d="M124.63,145.35l-.48.07Z"/><path class="cls-1" d="M123.75,155.59l.47.66Z"/><path class="cls-1" d="M132.27,156.24a.47.47,0,0,1,.49-.49Z"/><path class="cls-1" d="M123.31,146.8l.33-.47Z"/></g></g></svg>