<svg xmlns="http://www.w3.org/2000/svg" viewBox="0 0 150 125"><defs><style>.cls-1{fill:#010101;}</style></defs><g id="Layer_2" data-name="Layer 2"><g id="Layer_1-2" data-name="Layer 1"><path class="cls-1" d="M137.21,1.1s13.88-5.41,12.72,7.73c-.38,5.41-3.85,24.35-6.55,44.84l-9.25,60.67s-.77,8.89-7.71,10.44-17.35-5.41-19.27-7c-1.54-1.16-28.91-18.55-38.55-27-2.7-2.32-5.78-7,.39-12.37l40.47-38.65c4.63-4.64,9.25-15.46-10-2.32l-54,36.72s-6.17,3.86-17.73.39L2.69,66.81S-6.56,61,9.24,55.21C47.79,37.05,95.2,18.5,137.21,1.1Z"/></g></g></svg>