<svg xmlns="http://www.w3.org/2000/svg" viewBox="0 0 150 112.5"><defs><style>.cls-1{fill-rule:evenodd;}</style></defs><g id="Layer_2" data-name="Layer 2"><g id="Layer_1-2" data-name="Layer 1"><path class="cls-1" d="M59.35,25.82A6.25,6.25,0,0,0,50,31.25v50a6.25,6.25,0,0,0,9.35,5.43l43.75-25a6.26,6.26,0,0,0,0-10.86ZM87.4,56.25,62.5,70.48V42Z"/><path class="cls-1" d="M0,56.25C0,32.81,0,21.1,6,12.88A31.45,31.45,0,0,1,12.88,6C21.1,0,32.81,0,56.25,0h37.5c23.44,0,35.15,0,43.37,6A31.45,31.45,0,0,1,144,12.88c6,8.22,6,19.93,6,43.37s0,35.15-6,43.37a31.45,31.45,0,0,1-6.91,6.91c-8.22,6-19.93,6-43.37,6H56.25c-23.44,0-35.15,0-43.37-6A31.45,31.45,0,0,1,6,99.62C0,91.4,0,79.69,0,56.25ZM56.25,12.5h37.5c12,0,20,0,26.05.67,5.82.63,8.35,1.73,10,2.91a19,19,0,0,1,4.15,4.15c1.18,1.62,2.28,4.15,2.91,10,.65,6.06.67,14.05.67,26.05s0,20-.67,26.05c-.63,5.82-1.73,8.35-2.91,10a19,19,0,0,1-4.15,4.15c-1.62,1.18-4.15,2.28-10,2.91-6.06.65-14,.67-26,.67H56.25c-12,0-20,0-26-.67-5.82-.63-8.35-1.73-10-2.91a19,19,0,0,1-4.15-4.15c-1.18-1.62-2.28-4.15-2.91-10-.65-6.06-.67-14-.67-26s0-20,.67-26c.63-5.82,1.73-8.35,2.91-10a19,19,0,0,1,4.15-4.15c1.62-1.18,4.15-2.28,10-2.91C36.26,12.52,44.25,12.5,56.25,12.5Z"/></g></g></svg>